<svg width="54" height="54" viewBox="0 0 54 54" fill="none" xmlns="http://www.w3.org/2000/svg">
<g clip-path="url(#clip0)">
<path d="M23.6479 31.1102C23.7853 31.1186 23.9212 31.1186 24.0412 31.1186C25.4053 31.1186 26.5054 30.6863 27.4043 29.7971C27.4127 29.7886 27.4213 29.7798 27.4293 29.771C27.8641 29.3084 28.3249 28.8672 28.8097 28.4493L28.9758 28.2996L29.0101 28.2687C29.1413 28.2074 29.2488 28.11 29.3175 27.9899C29.4582 27.8607 29.5969 27.7303 29.736 27.5919C30.7822 26.5818 30.7726 25.399 29.7129 24.4277L25.6258 20.6463C25.3485 20.3689 24.7785 19.9216 23.9893 19.9216C23.4068 19.9216 22.8269 20.1734 22.3122 20.6497L19.7777 22.9947C19.7072 23.0717 19.6203 23.1344 19.5225 23.179C19.4247 23.2236 19.3181 23.2491 19.2092 23.2539C19.0824 23.2518 18.958 23.2222 18.8458 23.1675C18.8248 23.1554 18.8035 23.1432 18.7823 23.1326C18.5417 22.9961 18.2813 22.8756 18.0062 22.7482C17.7178 22.6203 17.4366 22.479 17.1636 22.3248C14.8588 20.9762 12.7685 19.2154 10.7734 16.9415C10.7678 16.935 10.7612 16.9279 10.7542 16.9206C9.6835 15.6601 8.98674 14.6111 8.49939 13.5261L8.48821 13.4948C8.37692 13.1662 8.37798 12.9593 8.68065 12.6794C8.6863 12.6742 8.69183 12.6689 8.69722 12.6636C9.29915 12.1636 9.84806 11.6613 10.4701 11.0739C10.5839 11.0143 10.6778 10.9269 10.7416 10.8212C10.8291 10.7407 10.9168 10.6609 11.0047 10.5792C11.0748 10.5138 11.1452 10.4481 11.2158 10.3823C11.7601 9.87874 12.0362 9.34789 12.0362 8.80329C12.0362 8.25869 11.76 7.72772 11.2158 7.22413L9.2001 5.36079C9.07996 5.24623 8.96021 5.13314 8.84086 5.0215C8.72476 4.91229 8.60997 4.80382 8.49649 4.69607C8.00309 4.22461 7.58374 3.83201 7.14414 3.45158L7.13099 3.43941C6.64035 2.98547 6.07328 2.74573 5.49083 2.74573C4.91613 2.74573 4.33986 2.98243 3.82423 3.43028C3.81818 3.43564 3.81213 3.44099 3.80634 3.44635L1.27961 5.78479C0.545409 6.44545 0.0999444 7.33316 0.0282744 8.2784C-0.0939253 9.65883 0.176651 11.0798 0.904851 12.8837C2.05569 15.76 3.79384 18.4403 6.37595 21.3198C9.44345 24.7321 13.263 27.4991 17.5793 29.4359C19.1765 30.1427 21.3101 30.9718 23.6479 31.1102ZM23.9893 21.3822C24.1986 21.3822 24.4127 21.5829 24.4732 21.6445C24.4814 21.6528 24.4899 21.6609 24.4985 21.6688L28.5996 25.4631C29.0458 25.872 29.0531 26.1318 28.6199 26.5584C28.615 26.5626 28.611 26.5676 28.6067 26.5718L23.3754 21.732L23.4288 21.6826C23.6316 21.4949 23.8413 21.3822 23.9893 21.3822ZM5.49135 4.20636C5.69708 4.20636 5.90781 4.37296 6.01751 4.4741L6.035 4.49028C6.04211 4.49685 6.04921 4.50343 6.05671 4.50975C6.47592 4.87217 6.88185 5.25212 7.36276 5.71165C7.47886 5.82264 7.59659 5.93391 7.71594 6.04547C7.83235 6.155 7.94969 6.26453 8.07557 6.38501L10.0986 8.25674C10.3295 8.47044 10.4567 8.66443 10.4567 8.80329C10.4567 8.94215 10.3295 9.13602 10.0986 9.34972C10.0809 9.36627 10.0634 9.3827 10.046 9.39925L4.82524 4.56975L4.9135 4.48809C5.12502 4.30627 5.33009 4.20636 5.49135 4.20636ZM7.58822 20.3846C5.12554 17.6383 3.4721 15.0935 2.3844 12.3743C1.73986 10.78 1.49914 9.55283 1.60135 8.39974C1.64394 7.79925 1.92721 7.23508 2.39571 6.81765L3.709 5.60261L8.9332 10.4356C8.49031 10.847 8.07478 11.2188 7.63254 11.5856C7.5945 11.6148 7.55928 11.647 7.52731 11.682C6.86962 12.3108 6.68757 13.0702 6.98432 13.9397C6.98564 13.9439 6.98708 13.948 6.98866 13.9519L7.01089 14.0137C7.01655 14.0294 7.02286 14.0449 7.02957 14.0601C7.57796 15.2892 8.35009 16.4575 9.53289 17.8469C9.54183 17.8574 9.55275 17.8691 9.56406 17.8808C11.664 20.2706 13.8739 22.1281 16.3187 23.5587C16.6364 23.7395 16.9639 23.9049 17.3 24.0545C17.5499 24.1701 17.7858 24.2793 17.9709 24.3853C17.9914 24.3974 18.0126 24.4079 18.0341 24.418C18.0245 24.4136 18.0149 24.4089 18.0135 24.4083C18.0499 24.4292 18.0869 24.4491 18.123 24.4659C18.4588 24.6273 18.8313 24.7125 19.2097 24.7144C19.5262 24.7116 19.8387 24.6492 20.1284 24.5311C20.418 24.413 20.6786 24.2417 20.8944 24.0275L22.2596 22.7645L27.487 27.6009C27.0747 27.9699 26.6478 28.3676 26.2398 28.8113C25.6425 29.3968 24.9639 29.6581 24.0418 29.6581C23.9417 29.6581 23.8383 29.6581 23.7512 29.6527C21.6814 29.5303 19.7298 28.7684 18.2642 28.1193C14.1512 26.2732 10.5115 23.6363 7.58822 20.3846Z" fill="white"/>
<path d="M29.2616 44.1088L23.8633 40.6687C23.7271 40.5819 23.5667 40.5353 23.4025 40.5348C23.2382 40.5342 23.0774 40.5799 22.9405 40.6659C22.8036 40.7518 22.6966 40.8743 22.6332 41.0178C22.5697 41.1613 22.5526 41.3194 22.5841 41.472L23.2842 44.8706C20.9752 45.0479 18.6526 44.7752 16.4597 44.0695C14.2668 43.3639 12.2502 42.2401 10.5342 40.7676C8.81824 39.2952 7.43937 37.5052 6.48267 35.5082C5.52597 33.5112 5.01174 31.3495 4.97171 29.1565C4.96972 29.0533 4.94628 28.9514 4.90272 28.8568C4.85916 28.7621 4.79633 28.6766 4.71782 28.6049C4.63931 28.5333 4.54666 28.477 4.44515 28.4393C4.34365 28.4016 4.23528 28.3832 4.12624 28.3851C4.01719 28.387 3.9096 28.4093 3.80962 28.4506C3.70963 28.4919 3.61921 28.5514 3.5435 28.6258C3.4678 28.7002 3.4083 28.7879 3.36841 28.8841C3.32851 28.9802 3.309 29.0828 3.31098 29.186C3.3525 31.6095 3.92205 33.9984 4.98396 36.2032C6.04586 38.4081 7.57726 40.3813 9.48223 41.9993C11.3872 43.6174 13.6247 44.8454 16.0547 45.6065C18.4846 46.3676 21.0547 46.6454 23.6038 46.4225L24.346 50.0247C24.3774 50.1774 24.4559 50.3178 24.5716 50.4281C24.6873 50.5385 24.835 50.6138 24.9961 50.6447C25.1571 50.6755 25.3241 50.6604 25.4761 50.6013C25.6281 50.5423 25.7583 50.4418 25.85 50.3128L29.4863 45.1994C29.6091 45.0265 29.6545 44.8145 29.6123 44.61C29.5702 44.4055 29.4441 44.2252 29.2616 44.1088ZM25.5925 47.8604L25.0983 45.4613C25.0983 45.4595 25.0983 45.458 25.0983 45.4564C25.0937 45.4254 25.0871 45.3946 25.0786 45.3644L24.5985 43.0339L27.6446 44.9753L25.5925 47.8604Z" fill="white"/>
<path d="M42.3761 17.5578C42.4175 17.7407 42.5331 17.9016 42.6985 18.0065C42.8639 18.1114 43.0661 18.1521 43.2625 18.12C43.2713 18.1186 43.28 18.1171 43.2887 18.1157C43.4882 18.0764 43.6626 17.9644 43.7736 17.8044C43.8846 17.6443 43.9231 17.4494 43.8807 17.2624C43.3884 15.089 42.4234 13.0328 41.0459 11.2222C39.6685 9.41161 37.9081 7.88553 35.8748 6.73927C33.8415 5.59301 31.579 4.85118 29.2285 4.56011C26.878 4.26905 24.49 4.435 22.2137 5.0476L20.8669 1.92602C20.8099 1.79374 20.7123 1.68017 20.5865 1.59968C20.4606 1.5192 20.3123 1.47541 20.1602 1.47386C20.008 1.47231 19.8589 1.51306 19.7318 1.59097C19.6046 1.66888 19.505 1.78043 19.4457 1.91153L17.0933 7.10488C17.0137 7.28061 17.012 7.47895 17.0885 7.65627C17.165 7.8336 17.3135 7.97539 17.5012 8.05046L23.0514 10.2687C23.1915 10.3247 23.346 10.3406 23.4955 10.3143C23.6449 10.2881 23.7826 10.2208 23.8911 10.1212C23.9995 10.0215 24.0739 9.8938 24.1048 9.7543C24.1357 9.6148 24.1217 9.46974 24.0646 9.33746L22.794 6.39235C24.8604 5.85735 27.023 5.72502 29.1485 6.00354C31.2739 6.28205 33.3171 6.96551 35.152 8.01173C36.9869 9.05796 38.5745 10.4448 39.8169 12.0866C41.0593 13.7284 41.9302 15.5904 42.3758 17.5576L42.3761 17.5578ZM18.8099 7.00849L20.1377 4.07699L21.0349 6.1566C21.0351 6.1579 21.0354 6.1592 21.0356 6.1605C21.0455 6.18768 21.0572 6.21429 21.0704 6.24019L21.9421 8.26056L18.8099 7.00849Z" fill="white"/>
<path d="M53.1534 24.3082C53.1534 23.4443 52.7986 22.6158 52.1671 22.005C51.5356 21.3941 50.6791 21.0509 49.7859 21.0509H36.8342C35.9411 21.0509 35.0846 21.3941 34.4531 22.005C33.8216 22.6158 33.4668 23.4443 33.4668 24.3082V50.7427C33.4668 51.6066 33.8216 52.4351 34.4531 53.046C35.0846 53.6569 35.9411 54.0001 36.8342 54.0001H49.7859C50.6791 54.0001 51.5356 53.6569 52.1671 53.046C52.7986 52.4351 53.1534 51.6066 53.1534 50.7427V24.3082ZM36.8392 22.5543H49.7909C50.7907 22.5543 51.5992 23.3947 51.5992 24.3617V25.4358H50.0932C49.8871 25.4358 49.6894 25.515 49.5437 25.6559C49.3979 25.7969 49.3161 25.9881 49.3161 26.1875C49.3161 26.3868 49.3979 26.578 49.5437 26.719C49.6894 26.86 49.8871 26.9392 50.0932 26.9392H51.5992V46.859H35.021V26.9392H44.1504C44.3565 26.9392 44.5542 26.86 44.6999 26.719C44.8456 26.578 44.9275 26.3868 44.9275 26.1875C44.9275 25.9881 44.8456 25.7969 44.6999 25.6559C44.5542 25.515 44.3565 25.4358 44.1504 25.4358H35.021V24.3617C35.021 23.3947 35.8393 22.5543 36.8392 22.5543ZM49.7909 52.4967H36.8392C36.6026 52.5002 36.3678 52.4583 36.1481 52.3735C35.9284 52.2887 35.7282 52.1626 35.5592 52.0025C35.3901 51.8425 35.2555 51.6516 35.1632 51.441C35.0708 51.2304 35.0225 51.0041 35.021 50.7753V48.3624H51.5992V50.7753C51.5988 51.0036 51.5516 51.2296 51.4602 51.4401C51.3689 51.6506 51.2352 51.8414 51.067 52.0016C50.8987 52.1617 50.6993 52.2879 50.4802 52.3729C50.2612 52.4579 50.0269 52.5 49.7909 52.4967Z" fill="white"/>
<path d="M47.5189 30.1659H48.5777C48.7645 30.1659 48.9437 30.0969 49.0758 29.974C49.2079 29.8512 49.2821 29.6846 49.2821 29.5109C49.2821 29.3371 49.2079 29.1705 49.0758 29.0477C48.9437 28.9248 48.7645 28.8558 48.5777 28.8558H47.5189C47.3321 28.8558 47.1529 28.9248 47.0208 29.0477C46.8887 29.1705 46.8145 29.3371 46.8145 29.5109C46.8145 29.6846 46.8887 29.8512 47.0208 29.974C47.1529 30.0969 47.3321 30.1659 47.5189 30.1659Z" fill="white"/>
<path d="M44.6157 49.4589C44.368 49.4589 44.1258 49.5272 43.9199 49.6551C43.7139 49.7831 43.5534 49.965 43.4586 50.1777C43.3638 50.3905 43.339 50.6247 43.3873 50.8506C43.4357 51.0765 43.555 51.284 43.7301 51.4468C43.9053 51.6097 44.1284 51.7206 44.3714 51.7655C44.6143 51.8104 44.8661 51.7874 45.095 51.6992C45.3238 51.6111 45.5194 51.4619 45.657 51.2703C45.7946 51.0788 45.8681 50.8537 45.8681 50.6234C45.8677 50.3146 45.7356 50.0186 45.5009 49.8003C45.2661 49.582 44.9477 49.4592 44.6157 49.4589ZM44.6157 50.7689C44.5847 50.7689 44.5545 50.7603 44.5288 50.7443C44.503 50.7283 44.483 50.7056 44.4712 50.679C44.4593 50.6524 44.4563 50.6231 44.4623 50.5949C44.4684 50.5667 44.4833 50.5408 44.5052 50.5204C44.5271 50.5001 44.555 50.4862 44.5853 50.4806C44.6157 50.475 44.6471 50.4779 44.6757 50.4889C44.7043 50.5 44.7288 50.5186 44.7459 50.5425C44.7631 50.5665 44.7723 50.5946 44.7723 50.6234C44.7722 50.662 44.7557 50.699 44.7264 50.7263C44.697 50.7535 44.6572 50.7689 44.6157 50.7689Z" fill="white"/>
</g>
<defs>
<clipPath id="clip0">
<rect width="54" height="54" fill="white"/>
</clipPath>
</defs>
</svg>
