<svg width="68" height="68" viewBox="0 0 68 68" fill="none" xmlns="http://www.w3.org/2000/svg">
<path d="M49.0357 23.2936H18.9647C16.2881 23.2936 14.1179 25.4639 14.1179 28.1404C14.1179 30.817 16.2881 32.9873 18.9647 32.9873H49.0357C51.7123 32.9873 53.8825 30.817 53.8825 28.1404C53.8825 25.4639 51.7123 23.2936 49.0357 23.2936ZM49.0357 31.2511H18.9647C17.2472 31.2511 15.8541 29.8585 15.8541 28.1404C15.8541 26.4224 17.2472 25.0298 18.9647 25.0298H49.0357C50.7533 25.0298 52.1464 26.4224 52.1464 28.1404C52.1464 29.8585 50.7533 31.2511 49.0357 31.2511Z" fill="black"/>
<path d="M21.9916 26.4766H23.5831C24.0624 26.4766 24.4512 26.8655 24.4512 27.3447V28.9362C24.4512 29.4155 24.0624 29.8043 23.5831 29.8043H21.9916C21.5124 29.8043 21.1235 29.4155 21.1235 28.9362V27.3447C21.1235 26.8655 21.5124 26.4766 21.9916 26.4766Z" fill="black"/>
<path d="M44.4172 26.4766H46.0086C46.4879 26.4766 46.8767 26.8655 46.8767 27.3447V28.9362C46.8767 29.4155 46.4879 29.8043 46.0086 29.8043H44.4172C43.9379 29.8043 43.5491 29.4155 43.5491 28.9362V27.3447C43.5491 26.8655 43.9379 26.4766 44.4172 26.4766Z" fill="black"/>
<path d="M59.7369 19.5319H57.1434C55.3547 13.8187 50.4768 9.61619 44.5618 8.69385V6.55868C44.5415 5.2622 43.4954 4.21609 42.1989 4.19574H34.8682V0.868085C34.8682 0.38883 34.4794 0 34.0001 0C33.5209 0 33.132 0.38883 33.132 0.868085V4.19574H25.8013C24.5049 4.21609 23.4588 5.2622 23.4384 6.55868V8.69385C17.5235 9.61619 12.6456 13.8187 10.8568 19.5319H8.26332C4.42532 19.5319 1.30225 22.7104 1.30225 26.5489C1.30225 30.3875 4.42532 33.566 8.26332 33.566H11.448C13.6708 38.6298 18.5193 42.3542 24.3065 42.8917V47.166H19.7259C13.9726 47.166 9.30886 51.8297 9.30886 57.583C9.30886 63.3363 13.9726 68 19.7259 68H48.2744C54.0277 68 58.6914 63.3363 58.6914 57.583C58.6914 51.8297 54.0277 47.166 48.2744 47.166H43.6937V42.8917C49.481 42.3542 54.3295 38.6298 56.5522 33.566H59.7369C63.5749 33.566 66.698 30.3875 66.698 26.5489C66.698 22.7104 63.5749 19.5319 59.7369 19.5319ZM25.1746 6.55868C25.1938 6.22071 25.4634 5.95113 25.8013 5.93192H42.1989C42.5369 5.95113 42.8064 6.22071 42.8257 6.55868V8.53165C42.5363 8.52374 42.3758 8.53617 42.1735 8.53617H25.8268C25.6239 8.53617 25.4639 8.52374 25.1746 8.53165V6.55868ZM8.26332 31.8298C5.38213 31.8298 3.03842 29.4301 3.03842 26.5489C3.03842 23.6678 5.38213 21.2681 8.26332 21.2681H10.4307C10.2465 22.2277 10.1447 23.2015 10.1278 24.1787V27.3006C10.1425 28.835 10.3742 30.3598 10.8161 31.8298H8.26332ZM45.2852 66.2638H22.715V57.583H45.2852V66.2638ZM56.9529 57.583C56.9479 62.3744 53.0658 66.2576 48.2744 66.2638H47.0214V56.6962C47.0214 56.217 46.5608 55.8468 46.081 55.8468H21.9193C21.44 55.8468 20.9788 56.217 20.9788 56.6962V66.2638H19.7259C14.9311 66.2638 11.045 62.3772 11.045 57.583C11.045 52.7887 14.9311 48.9021 19.7259 48.9021H48.2744C53.0658 48.9083 56.9479 52.7916 56.9529 57.583ZM26.0427 47.166V42.9702H41.9576V47.166H26.0427ZM55.9916 27.3108C55.9916 35.0003 49.7579 41.234 42.0683 41.234H25.7872C18.0977 41.234 11.8639 35.0003 11.8639 27.3108V24.1956C11.8639 16.5061 18.0977 10.2723 25.7872 10.2723H42.0683C49.7579 10.2723 55.9916 16.5061 55.9916 24.1956V27.3108ZM59.7369 31.8298H57.1841C57.6261 30.3598 57.8578 28.835 57.8725 27.3006V24.1787C57.8555 23.2015 57.7538 22.2277 57.5695 21.2681H59.7369C62.6181 21.2681 64.9618 23.6678 64.9618 26.5489C64.9618 29.4301 62.6181 31.8298 59.7369 31.8298Z" fill="black"/>
</svg>
