<svg width="54" height="54" viewBox="0 0 54 54" fill="none" xmlns="http://www.w3.org/2000/svg">
<path d="M40.8595 18.4747C40.7311 18.1689 40.5739 17.8806 40.3909 17.6132H43.1366C45.8117 17.6132 47.9882 15.4368 47.9882 12.7617C47.9882 10.0866 45.8117 7.91014 43.1366 7.91014H34.6907C35.2277 7.12946 35.5429 6.18499 35.5429 5.16796C35.5429 2.49286 33.3665 0.316406 30.6913 0.316406H4.85155C2.17645 0.316406 0 2.49286 0 5.16796C0 7.84306 2.17645 10.0195 4.85155 10.0195H13.2975C12.7605 10.8002 12.4453 11.7447 12.4453 12.7617C12.4453 13.7787 12.7604 14.7232 13.2975 15.5039H10.5469C7.87175 15.5039 5.6953 17.6803 5.6953 20.3554C5.6953 21.8918 6.41396 23.2628 7.53204 24.1523C6.41396 25.0418 5.6953 26.4128 5.6953 27.9492C5.6953 29.4855 6.41396 30.8565 7.53204 31.746C6.41396 32.6356 5.6953 34.0065 5.6953 35.5429C5.6953 37.0793 6.41396 38.4502 7.53204 39.3398C6.41396 40.2293 5.6953 41.6003 5.6953 43.1366C5.6953 45.8117 7.87175 47.9882 10.5469 47.9882H22.9763C26.2507 51.4905 30.9088 53.6836 36.0704 53.6836C45.9568 53.6836 54 45.6404 54 35.7539C54 27.5256 48.4281 20.5751 40.8595 18.4747ZM43.1366 10.0195C44.6487 10.0195 45.8788 11.2497 45.8788 12.7617C45.8788 14.2737 44.6487 15.5039 43.1366 15.5039H36.3867H17.2968C15.7847 15.5039 14.5547 14.2737 14.5547 12.7617C14.5547 11.2497 15.7847 10.0195 17.2968 10.0195H43.1366ZM4.85155 7.91014C3.33945 7.91014 2.10937 6.67996 2.10937 5.16796C2.10937 3.65596 3.33945 2.42578 4.85155 2.42578H30.6913C32.2034 2.42578 33.4335 3.65596 33.4335 5.16796C33.4335 6.67996 32.2034 7.91014 30.6913 7.91014H4.85155ZM10.5469 17.6132H36.3867C36.8115 17.6132 37.2183 17.712 37.5832 17.8887C37.0843 17.8469 36.58 17.8243 36.0704 17.8243C31.1191 17.8243 26.6304 19.8418 23.3826 23.0976H10.5469C9.03486 23.0976 7.80467 21.8674 7.80467 20.3554C7.80467 18.8434 9.03486 17.6132 10.5469 17.6132ZM10.5469 25.207H21.5804C20.3832 26.8473 19.4575 28.6975 18.8696 30.6913H10.5469C9.03475 30.6913 7.80467 29.4613 7.80467 27.9492C7.80467 26.4372 9.03475 25.207 10.5469 25.207ZM10.5469 32.8007H18.3853C18.2253 33.7619 18.1407 34.7481 18.1407 35.7539C18.1407 36.6131 18.2028 37.4579 18.3202 38.2851H10.5469C9.03475 38.2851 7.80467 37.055 7.80467 35.5429C7.80467 34.0308 9.03475 32.8007 10.5469 32.8007ZM10.5469 45.8788C9.03475 45.8788 7.80467 44.6487 7.80467 43.1366C7.80467 41.6245 9.03475 40.3945 10.5469 40.3945H18.7508C19.283 42.3786 20.1476 44.2278 21.2813 45.8788H10.5469ZM36.0704 51.5742C27.347 51.5742 20.2501 44.4772 20.2501 35.7539C20.2501 27.0306 27.347 19.9337 36.0704 19.9337C44.7937 19.9337 51.8906 27.0306 51.8906 35.7539C51.8906 44.4772 44.7937 51.5742 36.0704 51.5742Z" fill="white"/>
</svg>
