<svg width="62" height="66" viewBox="0 0 62 66" fill="none" xmlns="http://www.w3.org/2000/svg">
<path d="M58.5589 3.33419H41.7962C41.3633 2.43368 40.6848 1.67375 39.8389 1.14189C38.9931 0.610025 38.0142 0.32785 37.015 0.32785C36.0158 0.32785 35.0369 0.610025 34.1911 1.14189C33.3452 1.67375 32.6667 2.43368 32.2337 3.33419H15.4716C14.5961 3.33514 13.7567 3.68341 13.1377 4.30256C12.5186 4.92172 12.1705 5.76117 12.1698 6.6367V29.5636C8.54721 31.9688 4.71578 34.0434 0.721723 35.7625L0.622379 35.8051C0.479211 35.8666 0.357224 35.9688 0.271512 36.0989C0.1858 36.2291 0.140124 36.3815 0.140137 36.5373V47.4832C0.140137 53.0839 2.82003 58.0057 7.89001 61.7166C10.2238 63.4211 12.8127 64.7454 15.5606 65.6405C15.7042 65.6825 15.8567 65.6832 16.0007 65.6425C18.6502 64.8102 21.1649 63.5978 23.4661 62.0433H58.5589C59.4343 62.0423 60.2736 61.6941 60.8926 61.0751C61.5116 60.456 61.8598 59.6167 61.8608 58.7413V6.6367C61.86 5.76117 61.5119 4.92172 60.8929 4.30256C60.2738 3.68341 59.4344 3.33514 58.5589 3.33419ZM33.3029 7.88859V5.6341C33.2987 5.14398 33.3917 4.65789 33.5764 4.20387C33.7611 3.74986 34.0339 3.33692 34.379 2.98887C34.7241 2.64083 35.1347 2.36457 35.5871 2.17605C36.0396 1.98752 36.5249 1.89046 37.015 1.89046C37.5051 1.89046 37.9904 1.98752 38.4429 2.17605C38.8953 2.36457 39.3059 2.64083 39.651 2.98887C39.9961 3.33692 40.2689 3.74986 40.4536 4.20387C40.6383 4.65789 40.7313 5.14398 40.7271 5.6341V7.88859C40.7271 8.09994 40.8111 8.30263 40.9605 8.45207C41.11 8.60151 41.3126 8.68547 41.524 8.68547H48.9936V13.1039H25.0362V8.68547H32.506C32.7174 8.68547 32.92 8.60151 33.0695 8.45207C33.2189 8.30263 33.3029 8.09994 33.3029 7.88859ZM50.5876 13.9008V11.8269H54.0009C54.1218 11.827 54.2376 11.8751 54.323 11.9606C54.4085 12.046 54.4565 12.1619 54.4566 12.2827V46.3527H50.4547C49.5792 46.3536 48.7399 46.7018 48.1209 47.3209C47.5018 47.9399 47.1537 48.7792 47.1527 49.6547V53.5505H30.7651C31.5564 51.6257 31.9598 49.5637 31.9522 47.4827V36.5366C31.9522 36.3808 31.9066 36.2284 31.8209 36.0983C31.7352 35.9682 31.6132 35.866 31.4701 35.8045L31.371 35.762C27.2478 33.9872 23.2983 31.8335 19.5731 29.3288V12.2827C19.5732 12.1619 19.6213 12.046 19.7067 11.9606C19.7921 11.8751 19.908 11.827 20.0288 11.8269H23.4421V13.9008C23.4421 14.1121 23.526 14.3148 23.6755 14.4642C23.8249 14.6137 24.0276 14.6976 24.239 14.6976H49.7908C50.0021 14.6976 50.2048 14.6137 50.3542 14.4642C50.5037 14.3148 50.5876 14.1121 50.5876 13.9008ZM53.3612 47.9464L48.7465 52.561V49.6547C48.747 49.2018 48.9272 48.7676 49.2474 48.4474C49.5677 48.1272 50.0018 47.9471 50.4547 47.9466L53.3612 47.9464ZM13.7635 6.6367C13.764 6.18384 13.9441 5.74966 14.2643 5.42944C14.5846 5.10921 15.0187 4.92909 15.4716 4.9286H31.7573C31.7256 5.16265 31.7094 5.39857 31.709 5.63477V7.09172H24.2394C24.028 7.09172 23.8253 7.17568 23.6759 7.32512C23.5264 7.47456 23.4425 7.67725 23.4425 7.88859V10.2331H20.0292C19.4858 10.2338 18.9649 10.45 18.5807 10.8342C18.1965 11.2184 17.9804 11.7393 17.9798 12.2827V28.2266C17.4908 27.8785 17.0057 27.5248 16.5247 27.1655C16.3867 27.0621 16.219 27.0062 16.0466 27.0062C15.8741 27.0062 15.7064 27.0621 15.5684 27.1655C14.9739 27.6115 14.3724 28.0481 13.7639 28.4753L13.7635 6.6367ZM15.788 64.0404C13.3032 63.1876 10.9588 61.9708 8.83125 60.4297C4.12186 56.9829 1.73389 52.6268 1.73389 47.4825V37.0601C6.7977 34.8473 11.5983 32.0755 16.0463 28.7962C20.4942 32.0755 25.2947 34.8473 30.3584 37.0601V47.4825C30.3584 52.6076 27.8985 56.9521 23.0466 60.396C20.8168 61.9568 18.3716 63.1845 15.788 64.0404ZM60.2669 58.7412C60.2664 59.194 60.0863 59.6282 59.7661 59.9484C59.4459 60.2687 59.0118 60.4488 58.5589 60.4494H25.5763C27.4614 58.8557 28.9429 57.076 30.0013 55.1441H47.4647C47.5657 55.1433 47.6665 55.136 47.7666 55.1222C47.9064 55.1558 48.0528 55.1506 48.19 55.1072C48.3271 55.0638 48.4498 54.9838 48.5448 54.8758C48.7459 54.7684 48.93 54.6317 49.091 54.4703L55.3771 48.1843C55.5913 47.9712 55.7612 47.7178 55.8768 47.4386C55.9924 47.1595 56.0515 46.8602 56.0507 46.558V12.2827C56.0501 11.7393 55.834 11.2184 55.4498 10.8342C55.0656 10.45 54.5447 10.2338 54.0013 10.2331H50.588V7.88859C50.588 7.67725 50.5041 7.47456 50.3546 7.32512C50.2052 7.17568 50.0025 7.09172 49.7912 7.09172H42.3211V5.6341C42.3207 5.3979 42.3045 5.16199 42.2726 4.92794H58.5589C59.0118 4.92854 59.446 5.10879 59.7662 5.42915C60.0863 5.74951 60.2663 6.18379 60.2666 6.6367L60.2669 58.7412Z" fill="black"/>
</svg>
