<svg width="25" height="25" viewBox="0 0 25 25" fill="none" xmlns="http://www.w3.org/2000/svg">
<path d="M18.75 24C18.75 24.5523 19.1977 25 19.75 25H24C24.5523 25 25 24.5523 25 24V19.75C25 19.1977 24.5523 18.75 24 18.75H19.75C19.1977 18.75 18.75 19.1977 18.75 19.75V24ZM18.75 14.625C18.75 15.1773 19.1977 15.625 19.75 15.625H24C24.5523 15.625 25 15.1773 25 14.625V10.375C25 9.82272 24.5523 9.375 24 9.375H19.75C19.1977 9.375 18.75 9.82271 18.75 10.375V14.625ZM9.375 5.25C9.375 5.80228 9.82271 6.25 10.375 6.25H14.625C15.1773 6.25 15.625 5.80228 15.625 5.25V1C15.625 0.447715 15.1773 0 14.625 0H10.375C9.82272 0 9.375 0.447715 9.375 1V5.25ZM18.75 5.25C18.75 5.80228 19.1977 6.25 19.75 6.25H24C24.5523 6.25 25 5.80228 25 5.25V1C25 0.447715 24.5523 0 24 0H19.75C19.1977 0 18.75 0.447715 18.75 1V5.25ZM9.375 14.625C9.375 15.1773 9.82271 15.625 10.375 15.625H14.625C15.1773 15.625 15.625 15.1773 15.625 14.625V10.375C15.625 9.82272 15.1773 9.375 14.625 9.375H10.375C9.82272 9.375 9.375 9.82271 9.375 10.375V14.625ZM0 14.625C0 15.1773 0.447715 15.625 1 15.625H5.25C5.80228 15.625 6.25 15.1773 6.25 14.625V10.375C6.25 9.82272 5.80228 9.375 5.25 9.375H1C0.447715 9.375 0 9.82271 0 10.375V14.625ZM0 24C0 24.5523 0.447715 25 1 25H5.25C5.80228 25 6.25 24.5523 6.25 24V19.75C6.25 19.1977 5.80228 18.75 5.25 18.75H1C0.447715 18.75 0 19.1977 0 19.75V24ZM9.375 24C9.375 24.5523 9.82271 25 10.375 25H14.625C15.1773 25 15.625 24.5523 15.625 24V19.75C15.625 19.1977 15.1773 18.75 14.625 18.75H10.375C9.82272 18.75 9.375 19.1977 9.375 19.75V24ZM0 5.25C0 5.80228 0.447715 6.25 1 6.25H5.25C5.80228 6.25 6.25 5.80228 6.25 5.25V1C6.25 0.447715 5.80228 0 5.25 0H1C0.447715 0 0 0.447715 0 1V5.25Z" fill="#FFCB21"/>
</svg>
