<svg width="54" height="54" viewBox="0 0 54 54" fill="none" xmlns="http://www.w3.org/2000/svg">
<path d="M53.7294 25.1553H51.1385V13.2373C51.1385 10.38 48.814 8.05557 45.9568 8.05557H42.4478L38.8568 1.59915C38.3095 0.61244 37.268 0 36.1384 0C35.6119 0 35.0896 0.135775 34.6284 0.391684L20.8471 8.05541H5.4532C2.59595 8.05541 0.271484 10.3799 0.271484 13.2371V48.8181C0.271484 51.6754 2.59595 53.9998 5.4532 53.9998H45.9568C48.814 53.9998 51.1385 51.6754 51.1385 48.8181V38.3686H53.7294V25.1553ZM45.9568 10.1282C47.5527 10.1282 48.8564 11.3406 49.0316 12.892H45.137L43.601 10.1282H45.9568ZM35.6367 2.2032C36.1228 1.93068 36.7768 2.12129 37.0451 2.60537L42.7657 12.8911H16.4157L35.6367 2.2032ZM49.0657 48.8181C49.0657 50.5322 47.6707 51.9272 45.9566 51.9272H5.4532C3.73907 51.9272 2.34407 50.5322 2.34407 48.8181V13.2373C2.34407 11.5232 3.73907 10.1282 5.4532 10.1282H17.1204L12.15 12.8922H6.10095C5.52786 12.8922 5.06458 13.3564 5.06458 13.9286C5.06458 14.5007 5.52786 14.9649 6.10095 14.9649H8.42235H46.2895H49.0657V25.1563H41.487C37.9675 25.1563 35.1032 28.0208 35.1032 31.5402V31.9859C35.1032 35.5054 37.9677 38.3697 41.487 38.3697H49.0657V48.8181ZM51.6566 36.296H51.1385H41.487C39.1096 36.296 37.1757 34.3623 37.1757 31.9847V31.539C37.1757 29.1617 39.1095 27.2278 41.487 27.2278H51.1385H51.6566V36.296ZM44.6613 31.847C44.6613 33.1114 43.6373 34.1352 42.3731 34.1352C41.1087 34.1352 40.0849 33.1113 40.0849 31.847C40.0849 30.5828 41.1089 29.5588 42.3731 29.5588C43.6375 29.5587 44.6613 30.5836 44.6613 31.847Z" fill="white"/>
</svg>
