<svg width="68" height="68" viewBox="0 0 68 68" fill="none" xmlns="http://www.w3.org/2000/svg">
<path d="M65.4027 36.1022L62.6174 35.21C62.2606 35.0956 61.9795 34.8109 61.8654 34.4482C61.2784 32.5818 60.3925 30.8296 59.2324 29.2401C58.7037 28.5156 58.1157 27.8238 57.4734 27.1651C57.8843 25.3625 58.1077 23.3223 58.0788 21.5598C58.0373 19.0383 57.5334 17.5595 56.5384 17.0383C56.0025 16.7573 54.3716 15.9036 45.5439 19.9445C45.3349 20.0401 45.1396 20.1579 44.9589 20.2929C44.3638 20.133 43.7555 19.985 43.1435 19.8522C43.0698 19.8361 42.9938 19.8219 42.9196 19.8063C43.6349 18.2436 44.0526 16.5464 44.1311 14.7943C44.1555 14.2482 43.7328 13.7857 43.1866 13.7614C42.642 13.7343 42.1781 14.1596 42.1538 14.7057C42.0248 17.5866 40.8298 20.2971 38.789 22.3381C37.5696 23.5574 36.1419 24.4431 34.6202 25.001C31.9814 24.6307 29.2935 24.6307 26.6547 25.001C25.1329 24.4431 23.7053 23.5574 22.486 22.3381C20.3086 20.1607 19.1095 17.2658 19.1095 14.1866C19.1095 11.1072 20.3086 8.2124 22.486 6.03507C24.6633 3.85761 27.5583 2.65844 30.6375 2.65844C33.7166 2.65844 36.6116 3.85761 38.789 6.03507C39.6639 6.91004 40.387 7.90852 40.938 9.0025C41.1838 9.49072 41.779 9.68728 42.267 9.44131C42.7553 9.19561 42.9517 8.60047 42.7059 8.11239C42.06 6.82955 41.213 5.65987 40.1887 4.63536C37.6375 2.08416 34.2454 0.679138 30.6376 0.679138C27.0297 0.679138 23.6377 2.08416 21.0865 4.63536C18.5353 7.18669 17.1303 10.5786 17.1303 14.1864C17.1303 17.7943 18.5353 21.1863 21.0865 23.7375C21.8224 24.4734 22.623 25.1063 23.4698 25.6365C23.4701 25.6365 23.4704 25.6363 23.4706 25.6363C22.8553 25.7962 22.2446 25.9758 21.6407 26.1777C21.1224 26.351 20.8427 26.9116 21.016 27.4301C21.1892 27.9485 21.75 28.2282 22.2683 28.055C27.6652 26.2507 33.6099 26.2507 39.0069 28.055C39.111 28.0898 39.2167 28.1062 39.3207 28.1062C39.7347 28.1062 40.1207 27.8443 40.2592 27.4301C40.4325 26.9117 40.1528 26.351 39.6344 26.1777C39.0305 25.9758 38.4199 25.7961 37.8045 25.6363C37.8048 25.6363 37.8051 25.6365 37.8053 25.6365C38.6523 25.1063 39.4527 24.4734 40.1887 23.7375C40.8397 23.0865 41.4144 22.3755 41.9134 21.6199C42.1862 21.6729 42.457 21.7285 42.7238 21.7864C43.0792 21.8635 43.433 21.9464 43.7836 22.0334C43.7726 22.0764 43.7613 22.1193 43.7522 22.163C43.2695 24.4534 43.3009 26.479 43.8453 28.1834C44.3345 29.7154 45.2176 30.9565 46.4696 31.8725C47.9453 32.952 49.7269 33.4183 51.3407 33.4183C52.5552 33.4183 53.675 33.1541 54.4974 32.6883C55.4276 32.1614 56.2069 31.0512 56.8238 29.3844C57.109 29.7173 57.3793 30.0582 57.634 30.4072C58.6669 31.8222 59.4554 33.3817 59.9776 35.0421C60.2843 36.0174 61.0455 36.7847 62.0139 37.0951L64.7992 37.9874C65.5301 38.2215 66.0211 38.8942 66.0211 39.6616V44.2802C66.0211 45.0475 65.5301 45.7202 64.7992 45.9544L60.3116 47.3918C59.5936 47.622 58.986 48.1154 58.6007 48.7813C56.8376 51.8283 54.0657 54.3497 50.3614 56.2756C49.9335 56.4984 49.6371 56.8967 49.5478 57.3687L48.1105 64.9792C48.0708 65.189 47.8871 65.341 47.6737 65.341H43.0004C42.787 65.341 42.6033 65.1888 42.5636 64.9792L41.7675 60.7732C41.6108 59.9457 40.8347 59.3959 39.9993 59.5225C37.9862 59.8269 35.912 59.9811 33.8344 59.9811C32.2887 59.9811 30.7628 59.8949 29.2988 59.7248C28.4893 59.6317 27.7352 60.1835 27.584 60.9828L26.8275 64.9792C26.7878 65.189 26.6041 65.341 26.3906 65.341H21.7174C21.5039 65.341 21.3203 65.1888 21.28 64.9761L19.8961 57.788C19.807 57.3249 19.5161 56.9311 19.0976 56.7076C12.7832 53.3366 9.44563 47.7049 9.44563 40.4214C9.44563 36.7415 10.2507 33.4874 11.8385 30.7493C13.3202 28.1942 15.4842 26.0815 18.2705 24.4698C18.7436 24.1961 18.9052 23.5908 18.6316 23.1175C18.358 22.6445 17.7526 22.4831 17.2794 22.7564C11.8768 25.8818 8.6182 30.7034 7.72105 36.8274V36.8272C7.62583 36.8186 7.53047 36.8104 7.43551 36.8006C7.45277 36.1398 7.33324 35.4731 7.07293 34.826C6.49878 33.3988 5.31941 32.3687 4.06818 32.2018C3.08218 32.0698 2.14386 32.4884 1.49268 33.3488C0.548516 34.5964 0.702445 35.5837 0.997688 36.1923C1.49613 37.2193 2.77737 37.9458 4.90357 38.4025C4.84513 38.4901 4.78085 38.578 4.71046 38.6663C3.45419 40.2419 1.97413 40.5902 1.01309 40.623C0.4505 40.642 0 41.0937 0 41.6567V41.6615C0 42.2168 0.438148 42.6697 0.992906 42.695C1.06396 42.6984 1.1382 42.7001 1.2155 42.7001C2.43153 42.7001 4.38321 42.2516 6.25826 39.9004C6.5543 39.5293 6.79548 39.1378 6.98089 38.7332C7.16762 38.7544 7.34705 38.7724 7.51891 38.7884C7.51891 38.788 7.51891 38.7877 7.51905 38.7873C7.48531 39.3236 7.46659 39.8677 7.46659 40.4214C7.46659 44.5423 8.449 48.2166 10.3863 51.3426C12.1727 54.2246 14.7302 56.5844 17.9905 58.3591L19.3359 65.3471C19.5523 66.4904 20.5538 67.3202 21.7174 67.3202H26.3906C27.5542 67.3202 28.5557 66.4904 28.7721 65.3471L29.4561 61.7336C30.8766 61.8841 32.3474 61.9603 33.8343 61.9603C35.8742 61.9603 37.9119 61.8182 39.8977 61.5377L40.6187 65.3474C40.8352 66.4907 41.8367 67.3203 43.0002 67.3203H47.6734C48.837 67.3203 49.8386 66.4905 50.055 65.3469L51.4545 57.9371C55.408 55.8465 58.3881 53.1002 60.3136 49.7725C60.4524 49.5326 60.6661 49.3566 60.9153 49.2768L65.4027 47.8394C66.9562 47.3415 68 45.9112 68 44.2799V39.6613C68 38.0301 66.9562 36.5999 65.4027 36.1022ZM55.951 24.3407C55.5701 27.5981 54.5484 30.3845 53.5217 30.966C52.3548 31.627 49.6607 31.7546 47.638 30.2749C45.6129 28.7936 44.9388 26.1296 45.6886 22.571C45.6886 22.5709 45.6886 22.5709 45.6886 22.5709C45.7639 22.2135 46.0178 21.9043 46.3678 21.7441C51.3222 19.4762 54.1786 18.7345 55.2398 18.7345C55.3999 18.7345 55.5192 18.7513 55.5986 18.7824C55.9174 19.1221 56.3355 21.0534 55.951 24.3407ZM2.77857 35.3281C2.67617 35.1169 2.91789 34.7457 3.07116 34.543C3.31407 34.2221 3.53786 34.1565 3.70693 34.1565C3.74266 34.1565 3.77599 34.1594 3.80654 34.1636C4.26155 34.2243 4.89905 34.725 5.2368 35.5645C5.31635 35.7621 5.41968 36.0895 5.44385 36.4977C4.07389 36.2139 3.00953 35.8047 2.77857 35.3281Z" fill="black"/>
</svg>
