<svg width="68" height="68" viewBox="0 0 68 68" fill="none" xmlns="http://www.w3.org/2000/svg">
<path d="M26.8064 11.2362L31.2832 11.8869L33.2855 15.9438C33.3513 16.0771 33.4531 16.1894 33.5794 16.2679C33.7057 16.3463 33.8514 16.3879 34 16.3879C34.1487 16.3879 34.2944 16.3463 34.4207 16.2679C34.5469 16.1894 34.6487 16.0771 34.7146 15.9438L36.7168 11.8869L41.1937 11.2362C41.3408 11.2148 41.4791 11.1526 41.5927 11.0568C41.7064 10.9609 41.791 10.8352 41.8369 10.6938C41.8829 10.5524 41.8883 10.401 41.8527 10.2566C41.8171 10.1122 41.7418 9.98074 41.6353 9.87695L38.3961 6.7188L39.1609 2.25989C39.186 2.11335 39.1696 1.96271 39.1136 1.82499C39.0576 1.68727 38.9641 1.56797 38.8439 1.48057C38.7236 1.39318 38.5813 1.34118 38.433 1.33045C38.2847 1.31972 38.1363 1.35069 38.0047 1.41985L34 3.52506L29.9957 1.41985C29.8641 1.35087 29.7159 1.32005 29.5677 1.33087C29.4195 1.34169 29.2773 1.39372 29.1572 1.48109C29.037 1.56845 28.9436 1.68767 28.8876 1.82529C28.8316 1.96291 28.8152 2.11344 28.8403 2.25989L29.6039 6.7188L26.3648 9.87655C26.2582 9.98033 26.1828 10.1119 26.1471 10.2563C26.1114 10.4007 26.1168 10.5522 26.1628 10.6937C26.2087 10.8352 26.2933 10.961 26.4071 11.0568C26.5208 11.1527 26.6591 11.2148 26.8064 11.2362ZM31.0165 7.56801C31.109 7.47781 31.1782 7.36648 31.2181 7.2436C31.2581 7.12072 31.2675 6.98998 31.2456 6.86264L30.683 3.58217L33.629 5.1309C33.7433 5.19102 33.8706 5.22243 33.9998 5.22243C34.129 5.22243 34.2562 5.19102 34.3706 5.1309L37.3165 3.58217L36.7539 6.86264C36.732 6.98998 36.7415 7.12072 36.7814 7.2436C36.8213 7.36648 36.8905 7.47781 36.983 7.56801L39.3666 9.89077L36.0728 10.3689C35.945 10.3875 35.8236 10.4369 35.7191 10.5128C35.6146 10.5887 35.5301 10.6889 35.4729 10.8048L34 13.7899L32.527 10.8053C32.4698 10.6895 32.3854 10.5893 32.2808 10.5133C32.1763 10.4374 32.0549 10.388 31.9271 10.3694L28.6333 9.8913L31.0165 7.56801Z" fill="black"/>
<path d="M15.3593 23.5491C15.508 23.5491 15.6537 23.5075 15.78 23.429C15.9062 23.3505 16.008 23.2382 16.0738 23.1049L18.0753 19.0481L22.5523 18.3973C22.6994 18.3759 22.8376 18.3138 22.9513 18.218C23.065 18.1221 23.1496 17.9964 23.1955 17.855C23.2415 17.7136 23.2469 17.5621 23.2113 17.4178C23.1757 17.2734 23.1004 17.1419 22.9939 17.0381L19.7545 13.8804L20.5192 9.42147C20.5443 9.27491 20.528 9.12424 20.4719 8.9865C20.4159 8.84876 20.3225 8.72945 20.2022 8.64205C20.0819 8.55465 19.9395 8.50265 19.7912 8.49194C19.6429 8.48123 19.4945 8.51222 19.3629 8.58143L15.3593 10.6869L11.355 8.58169C11.2234 8.51249 11.075 8.48149 10.9267 8.4922C10.7784 8.50292 10.6361 8.55491 10.5158 8.64231C10.3955 8.72971 10.302 8.84903 10.246 8.98677C10.19 9.12451 10.1736 9.27517 10.1987 9.42173L10.9636 13.8806L7.72403 17.0384C7.61756 17.1422 7.54225 17.2737 7.50662 17.418C7.47099 17.5624 7.47645 17.7138 7.5224 17.8552C7.56834 17.9967 7.65293 18.1224 7.7666 18.2182C7.88027 18.3141 8.01849 18.3762 8.16563 18.3976L12.6426 19.0484L14.6448 23.1051C14.7106 23.2384 14.8124 23.3506 14.9387 23.4291C15.0649 23.5076 15.2106 23.5491 15.3593 23.5491ZM13.2864 17.5311L9.9926 17.053L12.3759 14.7298C12.4684 14.6397 12.5376 14.5283 12.5775 14.4054C12.6174 14.2826 12.6269 14.1518 12.605 14.0245L12.0426 10.7444L14.9885 12.2931C15.1028 12.3533 15.2301 12.3847 15.3593 12.3847C15.4885 12.3847 15.6157 12.3533 15.7301 12.2931L18.6761 10.7444L18.1134 14.0249C18.0916 14.1522 18.101 14.283 18.141 14.4059C18.1809 14.5287 18.2501 14.6401 18.3427 14.7302L20.726 17.053L17.4322 17.5311C17.3044 17.5497 17.183 17.5991 17.0785 17.6751C16.9739 17.7511 16.8895 17.8513 16.8323 17.9671L15.3593 20.9516L13.8864 17.9671C13.8292 17.8513 13.7447 17.751 13.6402 17.6751C13.5357 17.5991 13.4142 17.5497 13.2864 17.5311Z" fill="black"/>
<path d="M57.0362 13.8807L57.8011 9.42183C57.8262 9.27528 57.8099 9.12461 57.7538 8.98687C57.6978 8.84913 57.6044 8.72981 57.4841 8.64241C57.3638 8.55501 57.2214 8.50302 57.0731 8.49231C56.9248 8.48159 56.7764 8.51259 56.6448 8.58179L52.6405 10.687L48.6362 8.58179C48.5046 8.51259 48.3563 8.48159 48.208 8.49231C48.0597 8.50302 47.9173 8.55501 47.797 8.64241C47.6767 8.72981 47.5833 8.84913 47.5272 8.98687C47.4712 9.12461 47.4548 9.27528 47.48 9.42183L48.2447 13.8807L45.0053 17.0385C44.8988 17.1423 44.8235 17.2738 44.7879 17.4181C44.7522 17.5625 44.7577 17.7139 44.8036 17.8554C44.8496 17.9968 44.9342 18.1225 45.0478 18.2183C45.1615 18.3142 45.2997 18.3763 45.4469 18.3977L49.9239 19.0485L51.926 23.1052C51.9918 23.2386 52.0936 23.3508 52.2199 23.4293C52.3462 23.5077 52.4919 23.5493 52.6405 23.5493C52.7892 23.5493 52.9349 23.5077 53.0612 23.4293C53.1874 23.3508 53.2893 23.2386 53.3551 23.1052L55.3572 19.0485L59.8342 18.3977C59.9813 18.3763 60.1195 18.3142 60.2332 18.2183C60.3469 18.1225 60.4315 17.9968 60.4774 17.8554C60.5234 17.7139 60.5288 17.5625 60.4932 17.4181C60.4576 17.2738 60.3823 17.1423 60.2758 17.0385L57.0362 13.8807ZM54.7135 17.5312C54.5856 17.5498 54.4642 17.5992 54.3596 17.6752C54.2551 17.7511 54.1706 17.8514 54.1134 17.9673L52.6405 20.9517L51.1675 17.9673C51.1104 17.8514 51.0259 17.7512 50.9214 17.6752C50.8169 17.5992 50.6954 17.5498 50.5676 17.5312L47.2738 17.0531L49.6572 14.73C49.7497 14.6398 49.8189 14.5284 49.8589 14.4056C49.8988 14.2827 49.9082 14.1519 49.8864 14.0246L49.3237 10.7441L52.2697 12.2928C52.3841 12.353 52.5113 12.3844 52.6405 12.3844C52.7697 12.3844 52.897 12.353 53.0113 12.2928L55.9573 10.7445L55.3947 14.025C55.3728 14.1523 55.3822 14.2831 55.4222 14.4059C55.4621 14.5288 55.5313 14.6402 55.6238 14.7304L58.0071 17.0531L54.7135 17.5312Z" fill="black"/>
<path d="M23.1963 20.3552C21.8155 20.3557 20.4915 20.9047 19.5155 21.8814C18.5395 22.8581 17.9915 24.1826 17.9919 25.5633C17.9924 26.9441 18.5414 28.2682 19.5181 29.2442C20.4948 30.2202 21.8193 30.7682 23.2001 30.7677H23.2038C24.5846 30.7672 25.9086 30.2182 26.8846 29.2415C27.8606 28.2648 28.4086 26.9404 28.4082 25.5596C28.4077 24.1788 27.8587 22.8548 26.882 21.8788C25.9053 20.9028 24.5808 20.3547 23.2001 20.3552H23.1963ZM26.8201 25.5587C26.82 26.0336 26.7263 26.5038 26.5444 26.9425C26.3625 27.3812 26.0959 27.7798 25.76 28.1154C25.4241 28.4511 25.0253 28.7173 24.5865 28.8989C24.1476 29.0805 23.6773 29.1738 23.2024 29.1736H23.1998C22.2415 29.1734 21.3223 28.7934 20.6438 28.1167C19.9652 27.4401 19.5826 26.522 19.5797 25.5637C19.5801 24.6047 19.9614 23.6851 20.6399 23.0072C21.3183 22.3293 22.2382 21.9486 23.1973 21.949H23.1998C24.1581 21.9489 25.0774 22.3289 25.756 23.0055C26.4347 23.6822 26.8173 24.6003 26.8201 25.5587Z" fill="black"/>
<path d="M47.682 35.8145H47.6771L41.8369 35.8186C40.4392 35.8227 39.0778 36.2639 37.9434 37.0804C37.6108 36.3931 37.0914 35.8135 36.4447 35.4078C35.798 35.0021 35.0501 34.7867 34.2866 34.7863C34.2857 34.7863 34.2833 34.7863 34.2837 34.7863C33.3029 34.7844 32.355 35.1401 31.6176 35.7869C31.0013 34.9102 30.1833 34.1943 29.2326 33.6997C28.2819 33.2051 27.2262 32.9462 26.1545 32.9447H26.1496L20.3093 32.949C18.5388 32.9534 16.8421 33.6586 15.5901 34.9105C14.3381 36.1623 13.6326 37.8589 13.6279 39.6294L13.6311 47.0996C13.6311 47.3109 13.7151 47.5136 13.8645 47.6631C14.014 47.8125 14.2166 47.8965 14.428 47.8965L16.8144 47.8947L17.8122 65.9206C17.8238 66.1239 17.9127 66.3151 18.0608 66.4548C18.2089 66.5946 18.4049 66.6724 18.6085 66.6722H27.9333C28.1375 66.6722 28.334 66.5938 28.4821 66.4531C28.6302 66.3124 28.7186 66.1203 28.7291 65.9163L29.2355 56.0921H30.143L31.0993 65.9529C31.1186 66.1499 31.2105 66.3327 31.3571 66.4657C31.5038 66.5986 31.6947 66.6723 31.8927 66.6722H36.7499C36.9488 66.6722 37.1405 66.5978 37.2873 66.4637C37.4341 66.3295 37.5255 66.1453 37.5435 65.9473L38.4382 56.0824H38.7287L39.3408 65.925C39.3535 66.1272 39.4427 66.3171 39.5903 66.4559C39.738 66.5947 39.9329 66.672 40.1356 66.6722H49.4603C49.664 66.6722 49.8599 66.5942 50.0079 66.4544C50.1558 66.3145 50.2446 66.1232 50.256 65.9199L51.1865 49.3196L53.5746 49.318C53.786 49.318 53.9886 49.234 54.1381 49.0846C54.2875 48.9351 54.3715 48.7324 54.3715 48.5211L54.3683 42.4861C54.3638 40.7155 53.6574 39.019 52.404 37.7684C51.1507 36.5178 49.4526 35.8151 47.682 35.8145ZM34.2849 36.3795H34.2866C34.9393 36.3794 35.5653 36.6381 36.0275 37.0989C36.4897 37.5597 36.7504 38.1849 36.7523 38.8376C36.752 39.4907 36.4922 40.117 36.0301 40.5786C35.568 41.0402 34.9415 41.2994 34.2884 41.2991H34.2866C33.6341 41.299 33.0082 41.0403 32.5461 40.5795C32.0841 40.1187 31.8235 39.4936 31.8215 38.841C31.8218 38.1879 32.0816 37.5616 32.5436 37.1C33.0057 36.6384 33.6322 36.3792 34.2853 36.3795H34.2849ZM37.7098 54.4892C37.511 54.4893 37.3194 54.5637 37.1726 54.6978C37.0259 54.8319 36.9346 55.016 36.9166 55.214L36.022 65.0784H32.616L31.6598 55.2171C31.6406 55.02 31.5488 54.8371 31.4022 54.704C31.2556 54.5709 31.0646 54.4971 30.8666 54.4971L28.5622 54.4987L28.5595 51.1435C28.5645 49.815 29.0947 48.5425 30.0345 47.6036C30.9744 46.6647 32.2474 46.1357 33.5758 46.1321L34.9908 46.1278H34.9944C36.3229 46.128 37.597 46.655 38.5377 47.593C39.4783 48.5311 40.0086 49.8039 40.0125 51.1323L40.0151 54.4876L37.7098 54.4892ZM50.4332 47.7263C50.2297 47.7265 50.0339 47.8045 49.8861 47.9444C49.7383 48.0843 49.6496 48.2754 49.6382 48.4786L48.7074 65.0784H40.8848L40.3251 56.081H40.812C41.0233 56.081 41.226 55.9971 41.3755 55.8476C41.5249 55.6982 41.6089 55.4955 41.6089 55.2842L41.6055 51.1319C41.601 49.3807 40.9022 47.7028 39.6623 46.4661C38.4224 45.2295 36.7427 44.535 34.9915 44.535H34.9867L33.5717 44.5392C31.8209 44.5437 30.143 45.2411 28.9049 46.479C27.6668 47.717 26.9692 49.3948 26.9646 51.1456L26.9679 55.2978C26.9683 55.4873 27.0361 55.6703 27.1592 55.8143C27.2823 55.9582 27.4527 56.0536 27.6398 56.0833L27.1764 65.0784H19.3625L18.3647 47.052C18.3534 46.8486 18.2647 46.6573 18.1167 46.5173C17.9687 46.3773 17.7727 46.2993 17.569 46.2993L15.2251 46.301L15.2222 39.6278C15.2271 38.28 15.765 36.9888 16.7183 36.0361C17.6717 35.0833 18.9632 34.5463 20.3111 34.5422L26.1512 34.5379H26.1551C26.988 34.5392 27.8079 34.7444 28.5433 35.1356C29.2786 35.5269 29.9068 36.0923 30.3732 36.7825C30.4529 36.9004 30.5267 37.023 30.5967 37.1472C30.3134 37.7653 30.19 38.4447 30.238 39.123C30.286 39.8013 30.5037 40.4566 30.8712 41.0287C31.2387 41.6008 31.7442 42.0713 32.3411 42.3969C32.938 42.7226 33.6072 42.8929 34.2872 42.8922H34.2901C35.3659 42.8922 36.3977 42.4648 37.1584 41.7041C37.9191 40.9434 38.3465 39.9117 38.3466 38.8359C38.3466 38.8276 38.3466 38.8195 38.3466 38.8113C38.4474 38.7158 38.551 38.6228 38.6586 38.5364C39.5578 37.8066 40.6812 37.4094 41.8393 37.4117L47.6795 37.4076H47.6832C49.0312 37.4082 50.3241 37.9431 51.2784 38.8952C52.2328 39.8473 52.7707 41.139 52.7744 42.487L52.7772 47.7253L50.4332 47.7263Z" fill="black"/>
<path d="M39.5139 28.4352C39.5175 29.8158 40.0683 31.1387 41.0457 32.1139C42.023 33.089 43.3471 33.6369 44.7277 33.6375H44.7316C45.7043 33.6366 46.6575 33.364 47.4835 32.8503C48.3096 32.3367 48.9756 31.6024 49.4066 30.7303H50.0995C50.9163 30.725 51.6979 30.3967 52.2736 29.8172C52.8493 29.2377 53.1724 28.454 53.1724 27.6372C53.1724 26.8203 52.8493 26.0366 52.2736 25.4571C51.6979 24.8776 50.9163 24.5494 50.0995 24.544H48.191C47.2379 23.6938 46.0051 23.2244 44.7279 23.2253H44.7241C43.3424 23.2253 42.0172 23.7742 41.0401 24.7512C40.063 25.7282 39.514 27.0534 39.5139 28.4352ZM51.5999 27.6372C51.5995 28.0348 51.4414 28.4159 51.1603 28.697C50.8792 28.9781 50.4981 29.1362 50.1005 29.1366H49.8939C49.9259 28.9016 49.9421 28.6647 49.9422 28.4276C49.9419 27.6334 49.7586 26.85 49.4065 26.1382H50.0995C50.4972 26.1384 50.8786 26.2966 51.1598 26.5779C51.4411 26.8591 51.5991 27.2406 51.5993 27.6383L51.5999 27.6372ZM42.1662 25.8795C42.5017 25.5425 42.9006 25.2752 43.3399 25.0932C43.7792 24.9112 44.2502 24.8181 44.7257 24.8191H44.7284C45.2612 24.8189 45.7875 24.9363 46.2696 25.163C46.7517 25.3898 47.1778 25.7202 47.5175 26.1308V26.1378H47.5232C47.9583 26.6666 48.2341 27.3081 48.3184 27.9877C48.4027 28.6672 48.2921 29.3568 47.9994 29.9758C47.7068 30.5949 47.2441 31.118 46.6655 31.4841C46.0868 31.8503 45.416 32.0443 44.7312 32.0437H44.7285C44.0136 32.0456 43.3141 31.8351 42.7189 31.4391C42.1236 31.043 41.6594 30.4791 41.3849 29.8189C41.1105 29.1586 41.0383 28.4318 41.1774 27.7305C41.3166 27.0292 41.6608 26.3849 42.1664 25.8795H42.1662Z" fill="black"/>
</svg>
