<svg width="68" height="68" viewBox="0 0 68 68" fill="none" xmlns="http://www.w3.org/2000/svg">
<path d="M42.089 33.3047L44.2258 31.168C44.6627 30.731 44.6627 30.0225 44.2258 29.5856L43.7408 29.1005L58.2348 14.6058L61.9066 13.3037C62.155 13.2157 62.3647 13.0421 62.4977 12.8143L66.9373 5.22174C67.1938 4.78228 67.122 4.22547 66.7625 3.86591L64.2406 1.34276C63.881 0.983197 63.3236 0.91141 62.8847 1.16797L55.2916 5.60752C55.0643 5.74048 54.8908 5.95022 54.8022 6.19867L53.4994 9.87041L39.0053 24.3651L38.5197 23.8794C38.0827 23.4425 37.3748 23.4425 36.9379 23.8794L34.8005 26.0168L30.5582 21.7733C32.8335 16.0441 31.5788 9.51522 27.3421 5.03759C23.1049 0.559343 16.6553 -1.05368 10.8087 0.902047C10.441 1.0244 10.1633 1.32902 10.0746 1.70606C9.98535 2.0831 10.0983 2.47948 10.3724 2.75352L15.9174 8.29921L14.6428 14.6483L8.02713 15.8175L2.68307 10.436C2.40903 10.1607 2.01265 10.0464 1.63436 10.1345C1.2567 10.2225 0.950827 10.4996 0.826604 10.8673C-1.14035 16.7151 0.467046 23.1728 4.94529 27.417C9.42292 31.6605 15.9574 32.919 21.6916 30.6411L23.9925 32.9427L21.3121 34.409C21.219 34.4602 21.1335 34.5245 21.0586 34.5994L2.86722 52.7902C0.291012 55.372 0.291012 59.5519 2.86722 62.1337L5.97216 65.2387C8.55398 67.8149 12.7338 67.8149 15.3157 65.2387L33.5065 47.0479C33.582 46.9723 33.6457 46.8874 33.6968 46.7938L35.1638 44.114L57.3166 66.2668C59.7686 68.6963 63.7231 68.6875 66.1638 66.2468C68.6046 63.806 68.6133 59.8515 66.1838 57.3995L42.089 33.3047ZM39.9023 37.6582C39.4685 38.092 38.765 38.092 38.3312 37.6582L30.4477 29.7747C30.1662 29.4944 30.0557 29.0849 30.1581 28.7004C30.2611 28.3165 30.5607 28.0169 30.9452 27.9139C31.3291 27.8115 31.7386 27.922 32.0195 28.2035L39.9023 36.087C40.3362 36.5208 40.3362 37.2243 39.9023 37.6582ZM55.2597 11.2743C55.3771 11.157 55.467 11.0146 55.5232 10.8573L56.7735 7.3329L63.2686 3.53506L64.5708 4.83721L60.773 11.3317L57.2485 12.5821C57.0912 12.6383 56.9489 12.7281 56.8315 12.8455L42.1589 27.5181L40.5871 25.9469L55.2597 11.2743ZM37.7294 26.2528L41.8531 30.3771L40.1065 32.1237L35.9822 27.9994L37.7294 26.2528ZM22.7397 28.5256C22.4095 28.1954 21.9088 28.1049 21.4843 28.2984C16.3176 30.6355 10.2438 29.5369 6.2231 25.5387C3.02952 22.3682 1.62313 17.8169 2.47146 13.3973L6.85295 17.8094C7.11138 18.0697 7.48093 18.1864 7.84173 18.1228L15.7851 16.7189C16.2389 16.639 16.5966 16.2888 16.6877 15.8375L18.229 8.15127C18.3026 7.78484 18.1878 7.40531 17.9231 7.14063L13.3325 2.55065C17.7464 1.71105 22.289 3.1187 25.4551 6.30603C29.4533 10.3273 30.552 16.4005 28.2148 21.5673C28.0213 21.9924 28.1118 22.4924 28.442 22.8226L31.2623 25.6417C31.253 25.6417 31.2436 25.6404 31.2342 25.6404C30.346 25.6379 29.4933 25.9912 28.8665 26.6211C28.7467 26.7434 28.6356 26.8739 28.5351 27.0125L27.3777 25.8551C26.9408 25.4182 26.2323 25.4182 25.7953 25.8551C25.359 26.2921 25.359 27.0006 25.7953 27.437L27.9402 29.5818C28.002 29.9339 28.1212 30.2741 28.2916 30.5887L26.0369 31.8228L22.7397 28.5256ZM31.8117 45.5797L13.7339 63.6568C12.026 65.3604 9.26124 65.3604 7.55396 63.6568L4.44903 60.5519C2.7455 58.844 2.7455 56.0799 4.44903 54.372L22.5262 36.2942L26.3565 34.198L26.3634 34.1949L29.8147 32.306L35.7999 38.2905L33.911 41.7425C33.9097 41.745 33.9085 41.7475 33.9072 41.7494L31.8117 45.5797ZM64.602 64.685C63.0258 66.2574 60.4746 66.2574 58.899 64.685L36.2824 42.0684L37.5171 39.8136C37.8311 39.9847 38.1713 40.1033 38.5234 40.1651L56.1917 57.834C56.6287 58.2703 57.3372 58.2703 57.7741 57.834C58.2111 57.397 58.2111 56.6885 57.7741 56.2516L41.0928 39.5708C41.232 39.4709 41.3624 39.3598 41.4848 39.24C42.1146 38.6132 42.4673 37.7605 42.4654 36.8722C42.4654 36.8629 42.4642 36.8529 42.4636 36.8435L64.602 58.982C66.1744 60.5575 66.1744 63.1088 64.602 64.685Z" fill="black"/>
</svg>
