<svg width="29" height="23" viewBox="0 0 29 23" fill="none" xmlns="http://www.w3.org/2000/svg">
<path d="M2.78343 7.13059C3.15027 7.38946 4.25608 8.15829 6.10091 9.4367C7.9458 10.7151 9.35911 11.6994 10.3409 12.3898C10.4488 12.4654 10.6779 12.6299 11.0285 12.8835C11.3791 13.1372 11.6705 13.3422 11.9023 13.4986C12.1343 13.6549 12.4148 13.8303 12.744 14.0244C13.0731 14.2184 13.3833 14.3643 13.6746 14.4609C13.9659 14.5583 14.2356 14.6065 14.4837 14.6065H14.5H14.5163C14.7644 14.6065 15.0342 14.5582 15.3256 14.4609C15.6167 14.3643 15.9273 14.2182 16.2561 14.0244C16.585 13.8301 16.8655 13.6549 17.0975 13.4986C17.3295 13.3422 17.6206 13.1372 17.9714 12.8835C18.3219 12.6297 18.5513 12.4654 18.6592 12.3898C19.6516 11.6994 22.1764 9.94621 26.2328 7.13025C27.0203 6.58026 27.6783 5.91663 28.2068 5.1398C28.7358 4.36332 29 3.54874 29 2.69653C29 1.98437 28.7436 1.37476 28.2311 0.867737C27.7186 0.360603 27.1117 0.107178 26.4107 0.107178H2.58918C1.7585 0.107178 1.11924 0.38764 0.671512 0.948566C0.223837 1.5096 0 2.21087 0 3.05232C0 3.73199 0.296787 4.46852 0.890078 5.26144C1.48331 6.05443 2.11464 6.67753 2.78343 7.13059Z" fill="#CACACA"/>
<path d="M27.3815 8.86197C23.8432 11.2568 21.1564 13.1181 19.3226 14.4452C18.7077 14.8982 18.2088 15.2517 17.8257 15.5051C17.4426 15.7586 16.9331 16.0176 16.2964 16.2818C15.66 16.5464 15.0669 16.6783 14.5165 16.6783H14.5H14.4838C13.9336 16.6783 13.3401 16.5464 12.7037 16.2818C12.0673 16.0176 11.5574 15.7586 11.1744 15.5051C10.7915 15.2517 10.2925 14.8982 9.6776 14.4452C8.22104 13.3772 5.5401 11.5159 1.63465 8.86197C1.01954 8.45227 0.474712 7.98266 0 7.4541V20.3031C0 21.0156 0.253425 21.6248 0.760559 22.1319C1.26758 22.6392 1.87725 22.8927 2.58935 22.8927H26.4109C27.1228 22.8927 27.7324 22.6392 28.2395 22.1319C28.7467 21.6247 29 21.0156 29 20.3031V7.4541C28.536 7.97172 27.9968 8.44133 27.3815 8.86197Z" fill="#CACACA"/>
</svg>
