<svg width="54" height="54" viewBox="0 0 54 54" fill="none" xmlns="http://www.w3.org/2000/svg">
<g clip-path="url(#clip0)">
<path d="M13.5 18.0002C14.1218 18.0002 14.625 17.497 14.625 16.8752V10.5912L26.2045 22.1706C26.4241 22.3903 26.7121 22.5002 26.9999 22.5002C27.2877 22.5002 27.5755 22.3903 27.7953 22.1706L41.2951 8.67081C41.7346 8.23133 41.7346 7.51943 41.2951 7.08006C40.8556 6.64058 40.1437 6.64058 39.7043 7.08006L26.9998 19.7844L16.2158 9.0004H22.4998C23.1217 9.0004 23.6248 8.49721 23.6248 7.87538C23.6248 7.25355 23.1217 6.75037 22.4998 6.75037H13.5C12.8782 6.75037 12.375 7.25355 12.375 7.87538V16.8752C12.375 17.497 12.8782 18.0002 13.5 18.0002Z" fill="white"/>
<path d="M53.0762 36.1077C46.1132 28.7842 36.8519 24.7502 26.9985 24.7502C17.1461 24.7502 7.88481 28.7844 0.922835 36.1077C0.309862 36.7525 0 37.5993 0 38.4459C0 39.2924 0.309756 40.1389 0.922835 40.7833L6.10833 46.2402C7.32784 47.5212 9.49202 47.5212 10.7115 46.2402C12.4463 44.4154 14.4183 42.9113 16.5627 41.7755C17.6372 41.2218 18.3315 40.0561 18.3216 38.9542L19.1061 33.0414C24.7573 31.2331 29.2958 31.2342 34.8943 33.0404L35.6676 38.8059C35.6676 40.0529 36.329 41.1911 37.4101 41.7854C39.5656 42.9268 41.5375 44.4308 43.2734 46.2545C43.8831 46.8972 44.7005 47.2499 45.575 47.2499C46.4484 47.2499 47.2657 46.8972 47.8755 46.2557L53.0764 40.7846C53.6697 40.1604 53.9802 39.3473 53.9993 38.528C54.0194 37.654 53.709 36.7733 53.0762 36.1077ZM51.4459 39.2332L46.245 44.7053C45.8814 45.0866 45.265 45.0854 44.9036 44.7043C42.9997 42.7037 40.8332 41.0525 38.4778 39.8055C38.1273 39.6122 37.9175 39.2387 37.9077 38.6575L37.0309 32.046C36.9749 31.6231 36.6837 31.2682 36.2805 31.1297C32.9989 30.0059 30.0151 29.4445 27.0225 29.4445C24.0309 29.4445 21.0318 30.0059 17.7216 31.1287C17.3162 31.266 17.0239 31.6219 16.9679 32.046L16.0814 38.8058C16.0814 39.2167 15.8605 39.6067 15.521 39.7814C13.1502 41.0371 10.9837 42.6884 9.08102 44.6889C8.71842 45.069 8.10102 45.0679 7.73853 44.6899L2.55304 39.2331C2.14657 38.8068 2.14657 38.0851 2.55304 37.6588C9.0865 30.7847 17.7677 27 26.9983 27C36.2288 27 44.9112 30.7846 51.4457 37.6588C51.8524 38.0852 51.8524 38.8069 51.4459 39.2332Z" fill="white"/>
</g>
<defs>
<clipPath id="clip0">
<rect width="54" height="54" fill="white"/>
</clipPath>
</defs>
</svg>
