<svg width="32" height="27" viewBox="0 0 32 27" fill="none" xmlns="http://www.w3.org/2000/svg">
<path d="M20.6404 23.0619C20.6084 22.6091 20.5783 22.1816 20.6722 21.8463C20.6779 21.8269 20.683 21.8068 20.6879 21.7863L20.6904 21.7762C20.9396 20.6744 22.4124 18.8799 23.2923 17.808C23.422 17.65 23.5463 17.4984 23.6625 17.3549C23.6724 17.3427 23.6821 17.3303 23.6957 17.3124C24.9145 15.672 26.4577 13.0965 26.8882 10.1422C27.1912 8.0612 26.8776 6.16335 25.9562 4.49562C26.7774 3.51587 26.7238 2.04888 25.7996 1.13317C24.8754 0.217327 23.4075 0.176773 22.4351 1.00704C20.7591 0.100341 18.8583 -0.196114 16.7794 0.125878C13.8289 0.582354 11.2668 2.14827 9.63195 3.38543C9.61925 3.39534 9.60687 3.40506 9.59411 3.41566C9.45198 3.53282 9.30192 3.65811 9.1451 3.78921C8.08063 4.67875 6.29892 6.16744 5.1926 6.42792C5.17505 6.43239 5.15781 6.43704 5.13549 6.44329C4.7957 6.54176 4.36749 6.51563 3.91423 6.48792C2.83155 6.42161 0.821423 6.29274 0.0522833 8.899C-0.0828011 9.35649 0.0490478 9.84409 0.38802 10.18L16.9793 26.6204C17.3179 26.9559 17.8065 27.0835 18.2634 26.9447C20.8626 26.1522 20.7162 24.1441 20.6404 23.0619Z" fill="#CACACA"/>
<path d="M9.2794 21.9891L5.1712 17.9183C4.94545 17.6946 4.72059 17.6554 4.56788 17.6656C4.34451 17.6807 4.13793 17.7983 3.98219 18.0011C2.86695 19.4525 3.00882 21.5187 4.3108 22.8088C5.6271 24.1132 7.71001 24.2242 9.155 23.0678C9.24968 22.992 9.46736 22.7874 9.4834 22.4855C9.49317 22.3 9.41802 22.1265 9.2794 21.9891Z" fill="#CACACA"/>
<circle cx="26" cy="6" r="6" fill="#FFCB21"/>
</svg>
