<svg width="60" height="68" viewBox="0 0 60 68" fill="none" xmlns="http://www.w3.org/2000/svg">
<path d="M59.0297 16.6599L58.8419 16.5792C48.7809 12.25 39.2687 6.74245 30.506 0.172075C30.1999 -0.0571956 29.7789 -0.0571956 29.4729 0.172075C20.7096 6.74245 11.1979 12.25 1.13692 16.5787L0.948571 16.6599C0.632413 16.7956 0.427246 17.1067 0.427246 17.4509V34.1008C0.427246 39.9183 1.95366 45.3266 4.96333 50.1755C7.36142 54.0384 10.6985 57.5492 14.8814 60.611C21.9725 65.8012 28.956 67.8792 29.2498 67.9656C29.405 68.011 29.5699 68.0115 29.7257 67.9678C30.0295 67.8815 37.2518 65.8057 44.5879 60.6199C48.9172 57.5598 52.3702 54.0496 54.8524 50.1873C57.9523 45.3973 59.5853 39.8062 59.5511 34.1008V17.4509C59.5511 17.1067 59.3459 16.7956 59.0297 16.6599ZM57.829 34.1008C57.8615 39.4665 56.3289 44.7252 53.4185 49.2326C51.0636 52.9049 47.7714 56.2532 43.6338 59.1849C37.2642 63.6986 30.8048 65.8337 29.4959 66.2385C28.2172 65.8281 21.9938 63.6941 15.8573 59.1916C11.8633 56.2616 8.68548 52.9139 6.41127 49.2433C3.58322 44.6769 2.1493 39.5825 2.1493 34.1008V18.0176C12.0152 13.7422 21.357 8.34622 29.9892 1.93561C38.6218 8.34622 47.9631 13.7422 57.829 18.0176V34.1008Z" fill="black"/>
<path d="M5.54869 19.1524L5.38949 19.2207C5.07333 19.357 4.86816 19.6675 4.86816 20.0117V34.0863C4.86816 39.0288 6.16531 43.6243 8.7226 47.7445C10.7586 51.0238 13.5905 54.0043 17.1406 56.6025C23.1532 61.0035 29.0778 62.7659 29.3267 62.8388C29.482 62.8842 29.6468 62.8853 29.8026 62.841C30.061 62.7682 36.1869 61.0074 42.4063 56.6109C46.0797 54.0133 49.0103 51.0344 51.1169 47.7563C53.7516 43.686 55.1396 38.9347 55.1104 34.0863V20.0117C55.1104 19.6675 54.9058 19.3564 54.5896 19.2207L54.4304 19.1524C45.9356 15.4969 37.905 10.847 30.5061 5.29969C30.2001 5.06986 29.7791 5.06986 29.473 5.29969C22.0741 10.847 14.0435 15.4969 5.54869 19.1524ZM53.3884 20.5784V34.0863C53.4158 38.5944 52.1282 43.0133 49.6836 46.8011C49.1544 47.6234 48.5798 48.4155 47.9621 49.1734V49.0652C47.9621 48.5898 47.577 48.2041 47.1011 48.2041C46.6257 48.2041 46.24 48.5898 46.24 49.0652V50.8203C46.24 50.9044 46.2529 50.9879 46.277 51.0686C44.7983 52.5827 43.1833 53.9578 41.4523 55.1753C37.8058 57.727 33.8028 59.7271 29.5733 61.1111C25.4784 59.7204 21.6161 57.7214 18.1165 55.1815C16.5049 54.0065 15.0009 52.6915 13.6219 51.2514C13.6982 51.1202 13.7385 50.9711 13.7385 50.8197V49.0646C13.7385 48.5893 13.3529 48.2036 12.8775 48.2036C12.4016 48.2036 12.0165 48.5893 12.0165 49.0646V49.4133C11.3488 48.5842 10.7328 47.7148 10.1705 46.8106C7.79487 42.9741 6.59022 38.6931 6.59022 34.0863V20.5784C14.8793 16.979 22.73 12.4446 29.9893 7.06267C37.2491 12.4446 45.0993 16.979 53.3884 20.5784Z" fill="black"/>
<path d="M29.9887 48.2039C29.5134 48.2039 29.1277 48.5895 29.1277 49.0649V50.82C29.1277 51.2954 29.5134 51.6811 29.9887 51.6811C30.4641 51.6811 30.8497 51.2954 30.8497 50.82V49.0649C30.8497 48.5895 30.4641 48.2039 29.9887 48.2039Z" fill="black"/>
<path d="M35.6935 48.2039C35.2176 48.2039 34.8325 48.5895 34.8325 49.0649V50.82C34.8325 51.2954 35.2176 51.6811 35.6935 51.6811C36.1689 51.6811 36.5546 51.2954 36.5546 50.82V49.0649C36.5546 48.5895 36.1689 48.2039 35.6935 48.2039Z" fill="black"/>
<path d="M41.3976 48.2039C40.9223 48.2039 40.5366 48.5895 40.5366 49.0649V50.82C40.5366 51.2954 40.9223 51.6811 41.3976 51.6811C41.873 51.6811 42.2587 51.2954 42.2587 50.82V49.0649C42.2587 48.5895 41.873 48.2039 41.3976 48.2039Z" fill="black"/>
<path d="M24.2861 48.2039C23.8102 48.2039 23.425 48.5895 23.425 49.0649V50.82C23.425 51.2954 23.8102 51.6811 24.2861 51.6811C24.7614 51.6811 25.1471 51.2954 25.1471 50.82V49.0649C25.1471 48.5895 24.7614 48.2039 24.2861 48.2039Z" fill="black"/>
<path d="M18.5805 48.2039C18.1052 48.2039 17.7195 48.5895 17.7195 49.0649V50.82C17.7195 51.2954 18.1052 51.6811 18.5805 51.6811C19.0559 51.6811 19.4415 51.2954 19.4415 50.82V49.0649C19.4415 48.5895 19.0559 48.2039 18.5805 48.2039Z" fill="black"/>
<path d="M22.6062 35.1311L17.662 36.5672C17.2943 36.6743 17.0409 37.0112 17.0409 37.3941V39.9127H15.6384C15.163 39.9127 14.7773 40.2978 14.7773 40.7737C14.7773 41.2491 15.163 41.6347 15.6384 41.6347H17.9025C18.3778 41.6347 18.7635 41.2491 18.7635 40.7737V38.0404L22.6964 36.898C23.2632 40.4873 26.3564 43.1309 29.9899 43.1309C33.6241 43.1314 36.7178 40.4878 37.2846 36.8991L41.2147 38.0404V40.7737C41.2147 41.2491 41.5998 41.6347 42.0757 41.6347H44.3392C44.8146 41.6347 45.2003 41.2491 45.2003 40.7737C45.2003 40.2978 44.8146 39.9127 44.3392 39.9127H42.9367V37.3941C42.9362 37.0112 42.6833 36.6743 42.3156 36.5672L37.3754 35.1322V31.1684L41.2147 32.2834V35.0162C41.2147 35.4915 41.5998 35.8772 42.0757 35.8772H44.3392C44.8146 35.8772 45.2003 35.4915 45.2003 35.0162C45.2003 34.5408 44.8146 34.1551 44.3392 34.1551H42.9367V31.6371C42.9367 31.2542 42.6833 30.9168 42.3156 30.8102L37.3754 29.3752V26.6133C37.3737 24.0577 36.0513 21.6843 33.8786 20.3384C35.197 19.488 35.9936 18.0266 35.9947 16.4576V14.2501C35.9947 13.7741 35.609 13.389 35.1337 13.389C34.6577 13.389 34.2726 13.7741 34.2726 14.2501V16.4581C34.2704 18.0597 32.9727 19.3574 31.3712 19.359H31.3672C30.4574 19.1847 29.5235 19.1847 28.6137 19.359H28.6098C27.0083 19.3574 25.7106 18.0597 25.7089 16.4581V14.2501C25.7089 13.7741 25.3232 13.389 24.8479 13.389C24.372 13.389 23.9869 13.7741 23.9869 14.2501V16.4581C23.9874 18.0266 24.784 19.488 26.1024 20.3384C23.9297 21.6843 22.6073 24.0571 22.6062 26.6127V29.3741L17.662 30.8102C17.2943 30.9168 17.0409 31.2542 17.0409 31.6371V34.1551H15.6384C15.163 34.1551 14.7773 34.5408 14.7773 35.0162C14.7773 35.4915 15.163 35.8772 15.6384 35.8772H17.9025C18.3778 35.8772 18.7635 35.4915 18.7635 35.0162V32.2834L22.6062 31.1673V35.1311ZM24.3282 27.4743H29.1295V35.2505C27.9203 33.802 26.2022 32.8714 24.3282 32.6511V27.4743ZM35.6533 27.4743V32.6511C33.7793 32.872 32.0607 33.802 30.8515 35.2505V27.4743H35.6533ZM24.3282 35.7466V34.3866C27.0885 34.8149 29.1255 37.1895 29.1295 39.9833V41.3432C26.3692 40.9144 24.3316 38.5399 24.3282 35.7466ZM30.8515 41.3432V39.9844C30.8554 37.1906 32.8925 34.816 35.6533 34.3878V35.7477C35.6494 38.541 33.6117 40.915 30.8515 41.3438V41.3432ZM29.9905 20.9499C32.7843 20.9538 35.1589 22.9909 35.5872 25.7512H24.3933C24.8221 22.9909 27.1972 20.9538 29.9905 20.9505V20.9499Z" fill="black"/>
</svg>
