<svg width="111" height="111" viewBox="0 0 111 111" fill="none" xmlns="http://www.w3.org/2000/svg">
<circle cx="55.5002" cy="55.5" r="54.8625" fill="black" fill-opacity="0.15"/>
<g clip-path="url(#clip0)">
<path d="M57.0675 51.4245C52.3923 51.4245 48.603 55.2155 48.603 59.889C48.603 64.5642 52.3923 68.3535 57.0675 68.3535C61.7416 68.3535 65.532 64.5642 65.532 59.889C65.532 55.2155 61.7416 51.4245 57.0675 51.4245ZM79.6395 42.96H72.8679C71.9368 42.96 70.9335 42.2377 70.6395 41.354L68.8891 36.1009C68.5939 35.2178 67.5917 34.4955 66.6606 34.4955H47.4744C46.5433 34.4955 45.54 35.2178 45.246 36.1015L43.4956 41.3546C43.2004 42.2377 42.1982 42.96 41.2671 42.96H34.4955C31.3919 42.96 28.8525 45.4994 28.8525 48.603V73.9965C28.8525 77.1002 31.3919 79.6395 34.4955 79.6395H79.6395C82.7432 79.6395 85.2825 77.1002 85.2825 73.9965V48.603C85.2825 45.4994 82.7432 42.96 79.6395 42.96ZM57.0675 73.9965C49.2763 73.9965 42.96 67.6803 42.96 59.889C42.96 52.0983 49.2763 45.7815 57.0675 45.7815C64.8577 45.7815 71.175 52.0983 71.175 59.889C71.175 67.6803 64.8577 73.9965 57.0675 73.9965ZM77.6645 52.5492C76.5743 52.5492 75.6894 51.6655 75.6894 50.5741C75.6894 49.4839 76.5743 48.5991 77.6645 48.5991C78.7559 48.5991 79.6395 49.4839 79.6395 50.5741C79.6395 51.6655 78.7553 52.5492 77.6645 52.5492Z" fill="white"/>
</g>
<defs>
<clipPath id="clip0">
<rect width="56.43" height="56.43" fill="white" transform="translate(28.8525 28.8525)"/>
</clipPath>
</defs>
</svg>
