<svg width="56" height="64" viewBox="0 0 56 64" fill="none" xmlns="http://www.w3.org/2000/svg">
<path d="M53.7739 9.06915C53.1249 8.46765 52.3234 8.05561 51.4565 7.87782C51.4831 7.79122 51.5067 7.7037 51.5253 7.61432C51.6229 7.15763 51.6073 6.684 51.4798 6.23475C51.3523 5.78549 51.1167 5.37427 50.7938 5.03696C50.7636 5.00508 50.7328 4.97387 50.7032 4.94399C50.671 4.91229 50.6384 4.8813 50.6053 4.85102C50.2716 4.54017 49.8665 4.31621 49.4258 4.19887C48.9851 4.08154 48.5223 4.07444 48.0782 4.17819C47.9852 4.19944 47.8951 4.2264 47.8058 4.25602C47.6097 3.40726 47.1881 2.62719 46.5855 1.99821C46.1321 1.52703 45.5874 1.15325 44.9847 0.899713C44.382 0.646172 43.7339 0.518195 43.0801 0.523602C42.4262 0.529009 41.7803 0.667688 41.1819 0.931162C40.5835 1.19464 40.045 1.57737 39.5995 2.05598C39.0079 2.69446 38.5995 3.48077 38.4175 4.33199C38.3295 4.30463 38.2407 4.27979 38.1499 4.26067C37.7041 4.16433 37.2414 4.17915 36.8026 4.30382C36.3639 4.4285 35.9626 4.65921 35.634 4.9756C35.602 5.00575 35.5707 5.03656 35.5411 5.06618C35.5114 5.09579 35.4797 5.12979 35.4481 5.16406C35.1309 5.50662 34.9023 5.9216 34.7823 6.37279C34.6623 6.82398 34.6545 7.29768 34.7596 7.75258C34.7796 7.84116 34.8047 7.92802 34.8322 8.01382C33.966 8.20491 33.1691 8.63071 32.5287 9.24459C32.0575 9.69792 31.6837 10.2426 31.4301 10.8453C31.1765 11.448 31.0485 12.0961 31.0539 12.7499C31.0593 13.4038 31.1979 14.0497 31.4614 14.6481C31.7249 15.2466 32.1076 15.785 32.5862 16.2305C33.2357 16.8329 34.0382 17.2454 34.9061 17.4229C34.8795 17.5086 34.8567 17.5956 34.8382 17.6838C34.7407 18.14 34.7563 18.6131 34.8837 19.062C35.011 19.5108 35.2462 19.9216 35.5687 20.2587C35.5987 20.2906 35.6294 20.322 35.6646 20.3567C35.6963 20.3877 35.7283 20.418 35.759 20.4459C36.2732 20.9234 36.9485 21.1896 37.6502 21.1915C37.8642 21.1912 38.0775 21.1669 38.286 21.1188C38.3774 21.098 38.4666 21.0714 38.5548 21.0422C38.7502 21.899 39.1716 22.6878 39.7751 23.3266C40.2204 23.7987 40.7571 24.1752 41.3526 24.4334C41.948 24.6915 42.5898 24.8257 43.2387 24.828H43.2802C43.9366 24.8232 44.5849 24.6822 45.1841 24.414C45.7832 24.1458 46.3202 23.7561 46.7611 23.2697C47.3539 22.6257 47.7625 21.8339 47.9439 20.9775C48.0325 21.0053 48.1222 21.0239 48.2138 21.0433C48.4081 21.0837 48.6061 21.1036 48.8046 21.1026C49.5229 21.1003 50.2127 20.8213 50.7304 20.3234C50.7623 20.2934 50.7936 20.2617 50.8246 20.2304C50.8555 20.1992 50.8858 20.1666 50.9157 20.1339C51.2329 19.7913 51.4615 19.3764 51.5815 18.9252C51.7015 18.474 51.7093 18.0003 51.6042 17.5454C51.5843 17.4572 51.5594 17.3709 51.5321 17.2855C52.3968 17.0939 53.1924 16.6687 53.832 16.056C54.3033 15.6026 54.6771 15.0579 54.9307 14.4551C55.1843 13.8523 55.3123 13.2041 55.3069 12.5502C55.3015 11.8963 55.1628 11.2503 54.8993 10.6518C54.6357 10.0533 54.2529 9.51482 53.7742 9.06928L53.7739 9.06915ZM48.4939 5.99122C48.645 5.95468 48.8029 5.95695 48.9529 5.99782C49.1029 6.03869 49.2401 6.11683 49.3518 6.22497C49.3666 6.23825 49.3813 6.25246 49.3976 6.26866C49.414 6.28486 49.4278 6.29868 49.4417 6.31355C49.5583 6.43372 49.6434 6.58087 49.6893 6.74188C49.7352 6.90289 49.7405 7.07275 49.7048 7.23633C49.6608 7.43327 49.57 7.61669 49.44 7.77108C49.3101 7.92546 49.1448 8.04626 48.9583 8.12326C48.9345 8.13344 48.9112 8.14459 48.8883 8.15672L48.2969 8.47096L46.2059 9.5733L47.3765 7.26236L47.5846 6.85622C47.5979 6.83033 47.6097 6.80403 47.6205 6.7772C47.6919 6.58547 47.8086 6.41386 47.9607 6.277C48.1128 6.14014 48.2957 6.04209 48.4939 5.99122ZM43.9554 13.7086C43.7313 13.8641 43.4636 13.9442 43.1909 13.9374H43.1803C42.9121 13.9453 42.648 13.8701 42.4243 13.722C42.3986 13.7049 42.372 13.6892 42.3446 13.675C42.311 13.6484 42.2782 13.6241 42.247 13.5933C42.2158 13.5625 42.1862 13.533 42.1583 13.5003C42.1401 13.4738 42.1204 13.4483 42.0995 13.4239C41.9392 13.2015 41.8519 12.9349 41.8496 12.6607C41.8474 12.3866 41.9303 12.1185 42.0868 11.8935C42.1075 11.8683 42.1268 11.842 42.1448 11.8148C42.172 11.7812 42.2009 11.7488 42.2315 11.7176C42.2622 11.6863 42.294 11.6571 42.3271 11.6294C42.3547 11.6108 42.3809 11.5715 42.4059 11.5503C42.6259 11.3831 42.8928 11.289 43.169 11.2811H43.18C43.4537 11.2878 43.7188 11.3782 43.9394 11.5403C43.9505 11.549 43.9622 11.5668 43.9735 11.5752C44.0732 11.6511 44.162 11.7405 44.2373 11.8408C44.2433 11.8485 44.2488 11.859 44.255 11.8664C44.4179 12.0893 44.5071 12.3574 44.5104 12.6334C44.5136 12.9094 44.4307 13.1795 44.2731 13.4061C44.2526 13.4312 44.2336 13.4574 44.216 13.4846C44.1886 13.5184 44.1594 13.551 44.1284 13.5826C44.0976 13.6105 44.0653 13.6367 44.0318 13.6613C44.0055 13.6756 43.98 13.6914 43.9554 13.7086ZM40.961 3.32261C41.2343 3.02928 41.5645 2.79472 41.9314 2.63325C42.2984 2.47179 42.6944 2.38681 43.0953 2.3835C43.4962 2.3802 43.8935 2.45863 44.2631 2.61402C44.6326 2.76941 44.9667 2.9985 45.2447 3.28729C45.5223 3.57585 45.7383 3.91782 45.8797 4.29243C46.0211 4.66704 46.0848 5.06647 46.0671 5.46647C46.0564 5.6649 46.0043 5.85889 45.9141 6.03597L45.7235 6.4121L45.4868 6.87402C45.4785 6.89022 45.472 6.90683 45.4647 6.92329L44.1092 9.59854C44.0817 9.59017 44.0538 9.5826 44.0259 9.57489L44.019 8.10174C44.0184 7.85462 43.9205 7.61769 43.7465 7.44219C43.5725 7.2667 43.3364 7.16674 43.0893 7.16395H43.0848C42.8368 7.16756 42.6004 7.26911 42.427 7.44645C42.2536 7.62379 42.1575 7.86251 42.1595 8.11051L42.1663 9.54329L40.8351 7.0225C40.8209 6.98422 40.8041 6.94691 40.785 6.91081L40.3467 6.08936C40.3202 6.02867 40.292 5.96983 40.2623 5.91113C40.2137 5.78388 40.1843 5.65015 40.1749 5.51429C40.1505 5.11466 40.2077 4.71426 40.3428 4.33739C40.478 3.96053 40.6883 3.61505 40.961 3.32195V3.32261ZM36.8194 6.4202C36.8337 6.40466 36.8481 6.38926 36.8649 6.37226C36.8798 6.35698 36.8952 6.34224 36.91 6.32816C37.0198 6.21808 37.1557 6.1376 37.305 6.09422C37.4543 6.05084 37.6122 6.04597 37.7639 6.08007C37.9351 6.12006 38.0958 6.19593 38.2355 6.30266C38.3752 6.4094 38.4906 6.54457 38.5741 6.69924C38.6102 6.78358 38.6487 6.86712 38.692 6.94919L40.1032 9.62457L38.3121 8.71746C38.3005 8.71082 38.2895 8.70418 38.2777 8.69754L37.4045 8.25182C37.3815 8.24013 37.3581 8.22933 37.3342 8.21941C37.1464 8.14554 36.9792 8.0275 36.8467 7.87528C36.7142 7.72307 36.6204 7.54116 36.5731 7.34497C36.5348 7.18248 36.5372 7.01301 36.5801 6.85167C36.6231 6.69033 36.7053 6.54211 36.8194 6.4202ZM32.9127 12.7353C32.9094 12.3346 32.9878 11.9374 33.143 11.568C33.2982 11.1985 33.5271 10.8646 33.8156 10.5865C34.1041 10.3084 34.4462 10.0919 34.8211 9.95039C35.196 9.80882 35.5958 9.7451 35.9961 9.76309C36.1944 9.77387 36.3882 9.82598 36.5652 9.91609L40.1284 11.7209C40.1207 11.7464 40.1139 11.7721 40.1067 11.7978L38.64 11.8111C38.3932 11.8122 38.157 11.9113 37.9833 12.0865C37.8096 12.2618 37.7127 12.4988 37.7138 12.7456C37.7149 12.9923 37.814 13.2285 37.9892 13.4022C38.1645 13.5759 38.4016 13.6729 38.6483 13.6718H38.6568L40.0912 13.6585L37.5034 15.0231C37.4915 15.0288 37.4796 15.0334 37.4679 15.0396L36.9467 15.3165L36.6113 15.4934C36.4359 15.5871 36.2427 15.6425 36.0444 15.656C35.6447 15.6804 35.2442 15.6232 34.8673 15.488C34.4904 15.3528 34.1449 15.1424 33.8518 14.8695C33.557 14.5973 33.3214 14.2673 33.1598 13.9001C32.9982 13.5328 32.9141 13.1361 32.9127 12.7349V12.7353ZM37.8697 19.307C37.7181 19.3435 37.5598 19.341 37.4095 19.2998C37.2592 19.2586 37.1217 19.18 37.01 19.0714C36.9944 19.0573 36.979 19.0427 36.9675 19.0315C36.9523 19.0164 36.9374 19.0014 36.9218 18.9847C36.8052 18.8646 36.7201 18.7175 36.6742 18.5565C36.6283 18.3955 36.6229 18.2257 36.6587 18.0621C36.7026 17.8652 36.7934 17.6817 36.9234 17.5272C37.0534 17.3728 37.2186 17.2519 37.4052 17.175C37.4289 17.1648 37.4522 17.1536 37.4751 17.1415L37.8431 16.9459L40.154 15.727L38.7922 18.4152L38.7789 18.4409C38.7733 18.452 38.7688 18.4634 38.7636 18.4745C38.7418 18.5196 38.7207 18.5647 38.7009 18.6103C38.6233 18.7812 38.5084 18.9325 38.3645 19.053C38.2206 19.1735 38.0515 19.2602 37.8697 19.3066V19.307ZM45.3991 22.0043C45.1292 22.3037 44.8002 22.5439 44.4329 22.7099C44.0656 22.8759 43.6679 22.964 43.2649 22.9686H43.2394C42.8408 22.9656 42.4471 22.8816 42.0819 22.7218C41.7168 22.562 41.388 22.3297 41.1153 22.039C40.8375 21.7479 40.6215 21.4036 40.4802 21.0269C40.3389 20.6501 40.2752 20.2487 40.2931 19.8467C40.3024 19.6764 40.342 19.5091 40.4098 19.3526C40.4231 19.322 40.4382 19.2888 40.4511 19.2577L40.4583 19.2421L40.8767 18.4249C40.8913 18.3963 40.9043 18.367 40.9165 18.3376L42.2282 15.7478L42.2352 17.158C42.2364 17.2782 42.2614 17.3969 42.309 17.5073C42.3565 17.6177 42.4256 17.7176 42.5121 17.801C42.5987 17.8844 42.701 17.9498 42.813 17.9932C42.9251 18.0367 43.0447 18.0574 43.1649 18.0542H43.1695C43.2901 18.057 43.4101 18.0357 43.5223 17.9914C43.6346 17.9472 43.7368 17.8809 43.823 17.7965C43.9092 17.7122 43.9777 17.6114 44.0244 17.5001C44.071 17.3889 44.0949 17.2694 44.0947 17.1488L44.0875 15.6929C44.1118 15.6857 44.1361 15.6861 44.1602 15.6784L45.5393 18.2967C45.5511 18.3254 45.5643 18.3554 45.5792 18.3834L46.0069 19.186L46.0188 19.2088C46.032 19.2382 46.0453 19.2668 46.0594 19.2956C46.1309 19.4543 46.1738 19.6245 46.1861 19.7981C46.2104 20.1999 46.1532 20.6024 46.0179 20.9814C45.8827 21.3605 45.6722 21.7083 45.3991 22.0039V22.0043ZM49.5428 18.88C49.5286 18.8957 49.5139 18.911 49.499 18.9262C49.4841 18.9415 49.4688 18.9562 49.454 18.9703C49.3441 19.0803 49.2082 19.1608 49.0589 19.2042C48.9095 19.2475 48.7517 19.2524 48.6 19.2184C48.4169 19.1749 48.246 19.0908 48.0999 18.9722C47.9538 18.8536 47.8364 18.7036 47.7562 18.5334C47.7371 18.4914 47.7164 18.4498 47.6958 18.4084C47.6894 18.3951 47.6836 18.3812 47.6765 18.3679L47.6524 18.3226L46.2562 15.676L48.6006 16.8635L48.9584 17.0461C48.9815 17.0579 49.0049 17.0687 49.0288 17.0785C49.2166 17.1524 49.3838 17.2705 49.5163 17.4227C49.6487 17.5749 49.7426 17.7568 49.7898 17.953C49.8282 18.1159 49.8257 18.2858 49.7824 18.4474C49.7392 18.6091 49.6566 18.7576 49.542 18.8796L49.5428 18.88ZM52.5444 14.7153C52.256 14.9931 51.9141 15.2093 51.5395 15.3507C51.1648 15.492 50.7653 15.5557 50.3653 15.5376C50.1668 15.5269 49.9728 15.4748 49.7957 15.3846L49.4335 15.2011L48.9316 14.9449C48.9206 14.9393 48.9093 14.9351 48.8981 14.9299L46.295 13.6116L47.7229 13.5962C47.9719 13.5872 48.2077 13.4817 48.3802 13.3019C48.5527 13.1221 48.6485 12.8822 48.6472 12.633C48.6459 12.3838 48.5476 12.1449 48.3732 11.967C48.1987 11.789 47.9619 11.6859 47.7128 11.6796H47.7024L46.2403 11.7238C46.2323 11.6972 46.2246 11.684 46.2159 11.6565L48.8795 10.2585C48.8847 10.2558 48.8903 10.2576 48.8955 10.2548L49.1837 10.1034L49.7491 9.80612C49.9245 9.71308 50.1175 9.65788 50.3156 9.64409C50.7153 9.62 51.1158 9.67734 51.4926 9.81263C51.8695 9.94792 52.215 10.1583 52.5081 10.4311C52.8014 10.7044 53.036 11.0346 53.1975 11.4016C53.3589 11.7686 53.4439 12.1646 53.4473 12.5655C53.4506 12.9664 53.3721 13.3638 53.2168 13.7334C53.0614 14.103 52.8323 14.437 52.5436 14.7151L52.5444 14.7153Z" fill="black"/>
<path d="M52.833 39.836H45.8371C46.3184 38.8586 46.6337 37.8079 46.7702 36.727C47.0629 34.5215 46.6433 32.2801 45.5724 30.3299C44.9987 29.2799 44.2518 28.3344 43.3632 27.5332C42.4555 26.4005 41.1448 25.6628 39.7055 25.4746L17.4294 22.5411C15.9963 22.3521 14.5454 22.7222 13.3779 23.5746C11.854 24.3503 10.5404 25.4832 9.54918 26.8767C8.558 28.2701 7.9187 29.8827 7.68587 31.5768C7.28372 34.6298 8.24169 37.711 10.2413 39.836H1.62378C1.48342 39.8412 1.34589 39.877 1.22079 39.9408C1.0957 40.0047 0.98606 40.0951 0.899541 40.2057C0.813023 40.3164 0.751712 40.4446 0.719896 40.5814C0.68808 40.7182 0.686526 40.8603 0.715342 40.9977L2.3917 48.7142C3.19548 52.4118 5.24611 55.4625 8.32191 57.531C10.6048 59.0664 13.3762 60.0225 16.4345 60.3443C16.546 61.209 16.9683 62.0036 17.6224 62.5799C18.2766 63.1562 19.1181 63.475 19.9899 63.4767H34.4664C35.3382 63.4755 36.1797 63.1572 36.834 62.5812C37.4883 62.0052 37.9107 61.2108 38.0224 60.3463C41.0806 60.0245 43.8522 59.0698 46.135 57.5345C49.2108 55.4659 51.2615 52.418 52.0652 48.7205L53.7415 41.0093C53.7711 40.87 53.7699 40.7258 53.7381 40.587C53.7062 40.4481 53.6444 40.3179 53.5571 40.2054C53.4711 40.0942 53.3616 40.0035 53.2364 39.9396C53.1112 39.8758 52.9734 39.8404 52.833 39.836ZM39.4621 27.3212C39.6097 27.341 39.7561 27.3694 39.9003 27.4064C39.9723 27.4778 40.0556 27.5369 40.1467 27.5813C40.8175 27.9085 41.4416 28.3239 42.0024 28.8165C42.591 29.6048 42.8484 30.5919 42.7196 31.5673L42.4963 33.2606C42.4314 33.7534 42.2701 34.2285 42.0216 34.6589C41.7731 35.0892 41.4422 35.4665 41.0479 35.769C40.6536 36.0715 40.2035 36.2933 39.7235 36.4219C39.2434 36.5505 38.7427 36.5832 38.25 36.5183L15.974 33.5831C15.4813 33.5182 15.0062 33.3568 14.5758 33.1083C14.1454 32.8598 13.7682 32.5289 13.4657 32.1346C13.1632 31.7403 12.9414 31.2902 12.8128 30.8102C12.6842 30.3301 12.6515 29.8294 12.7164 29.3367L12.9394 27.6439C13.068 26.6633 13.5765 25.7725 14.3554 25.1632C15.0482 24.8248 15.7845 24.584 16.5433 24.4476C16.637 24.4308 16.7276 24.3998 16.812 24.3557C16.9359 24.3597 17.0606 24.3698 17.186 24.3862L39.4621 27.3212ZM9.52944 31.82C9.71257 30.453 10.2216 29.15 11.0136 28.0209L10.8738 29.0883C10.6779 30.5729 11.0797 32.0745 11.9908 33.2628C12.9019 34.4512 14.2477 35.229 15.7322 35.4253L38.0078 38.3618C38.256 38.3947 38.5061 38.4113 38.7566 38.4115C40.1237 38.4083 41.4432 37.9091 42.4701 37.0066C43.497 36.1041 44.1616 34.8597 44.3404 33.5043L44.4785 32.4568C44.9492 33.744 45.1029 35.1257 44.9264 36.4848C44.767 37.7004 44.3606 38.9069 43.721 39.8366H13.0014C11.7502 38.9408 10.7661 37.7216 10.1545 36.3095C9.54287 34.8973 9.32682 33.3455 9.52944 31.82ZM34.4662 61.6173H19.9896C19.6302 61.6118 19.2812 61.4958 18.9901 61.285C18.699 61.0742 18.4799 60.7788 18.3625 60.4391C18.5028 60.4416 18.6426 60.422 18.7838 60.422H35.6719C35.813 60.422 35.9529 60.4416 36.0933 60.4391C35.9759 60.7788 35.7568 61.0742 35.4656 61.285C35.1745 61.4958 34.8256 61.6118 34.4662 61.6173ZM50.2482 48.2785C48.869 54.6225 43.2837 58.5626 35.6719 58.5626H18.7841C11.1722 58.5626 5.5869 54.6225 4.20778 48.2785L2.77659 41.6954H12.7033H12.7068H12.7111H44.2167H44.2202H44.2246H51.6791L50.2482 48.2785Z" fill="black"/>
<path d="M28.6572 33.8583L35.8291 34.8033C35.9722 34.8221 36.1165 34.8316 36.2609 34.8317C37.0863 34.8295 37.88 34.5138 38.4814 33.9485C39.0829 33.3831 39.447 32.6104 39.5002 31.7867C39.5534 30.963 39.2916 30.1499 38.7679 29.5119C38.2442 28.8739 37.4976 28.4588 36.6794 28.3504C36.558 28.3339 36.4347 28.3415 36.3163 28.3728C36.1979 28.4041 36.0869 28.4584 35.9895 28.5327C35.8922 28.607 35.8106 28.6998 35.7492 28.8058C35.6879 28.9118 35.6481 29.0288 35.6321 29.1502C35.6161 29.2716 35.6242 29.395 35.6561 29.5132C35.6879 29.6314 35.7427 29.7422 35.8175 29.8392C35.8922 29.9362 35.9854 30.0174 36.0917 30.0783C36.1979 30.1392 36.3151 30.1784 36.4366 30.1939C36.8034 30.2422 37.136 30.4343 37.3611 30.7279C37.5863 31.0215 37.6856 31.3925 37.6373 31.7593C37.5889 32.1261 37.3968 32.4586 37.1032 32.6838C36.8097 32.909 36.4387 33.0083 36.0719 32.96L28.9 32.0149C28.6555 31.9827 28.4083 32.0489 28.2127 32.199C28.017 32.3491 27.889 32.5708 27.8568 32.8153C27.8246 33.0597 27.8909 33.307 28.041 33.5026C28.1911 33.6982 28.4128 33.8262 28.6572 33.8584V33.8583Z" fill="black"/>
</svg>
