<svg width="68" height="68" viewBox="0 0 68 68" fill="none" xmlns="http://www.w3.org/2000/svg">
<path d="M34 17.1919C23.375 17.1919 14.875 25.7025 14.875 36.3402C14.875 46.9778 23.375 55.4884 34 55.4884C44.625 55.4884 53.125 46.9783 53.125 36.3407C53.125 25.703 44.625 17.1919 34 17.1919ZM34 51.4464C25.7125 51.4464 19.125 44.6378 19.125 36.5532C19.125 28.2556 25.925 21.66 34 21.66C42.2875 21.66 48.875 28.4686 48.875 36.5532C48.875 44.6378 42.2875 51.4464 34 51.4464Z" fill="black" fill-opacity="0.15"/>
<path d="M61.625 14.8519H49.5125L47.6 10.1714C46.75 8.04382 43.9875 6.3418 41.4375 6.3418H26.35C23.8 6.3418 21.25 8.04382 19.975 10.3844L18.275 14.8524H6.375C2.7625 14.8519 0 17.6175 0 21.022V55.702C0 58.8936 2.7625 61.6591 6.375 61.6591H61.625C65.025 61.6591 68 58.8931 68 55.702V21.022C68 17.6175 65.2375 14.8519 61.625 14.8519ZM63.75 55.702C63.75 56.766 62.6875 57.404 61.625 57.404H6.375C5.3125 57.404 4.25 56.7655 4.25 55.702V21.022C4.25 19.958 5.1 19.107 6.375 19.107H19.7625C20.6125 19.107 21.4625 18.6815 21.675 17.8305L24.0125 12.0859C24.4375 11.4474 25.5 10.5964 26.35 10.5964H41.4375C42.2875 10.5964 43.5625 11.4474 43.775 11.8729L46.1125 17.6175C46.5375 18.6815 47.3875 19.107 48.2375 19.107H61.625C62.6875 19.107 63.75 19.958 63.75 21.022V55.702Z" fill="black" fill-opacity="0.15"/>
<path d="M8.5 20.1704C6.8 20.1704 5.3125 21.6599 5.3125 23.362C5.3125 25.064 6.8 26.5535 8.5 26.5535C10.2 26.5535 11.6875 25.064 11.6875 23.362C11.6875 21.6599 10.2 20.1704 8.5 20.1704ZM8.5 24.426C7.8625 24.426 7.4375 24.0005 7.4375 23.362C7.4375 22.7234 7.8625 22.2979 8.5 22.2979C9.1375 22.2979 9.5625 22.7234 9.5625 23.362C9.5625 24.0005 9.1375 24.426 8.5 24.426Z" fill="black" fill-opacity="0.15"/>
<path d="M34 27.8301C29.325 27.8301 25.5 31.6596 25.5 36.3407C25.5 41.0218 29.325 44.8513 34 44.8513C38.675 44.8513 42.5 41.0213 42.5 36.3407C42.5 31.6601 38.675 27.8301 34 27.8301ZM34 40.5958C31.6625 40.5958 29.75 38.6807 29.75 36.3407C29.75 34.0002 31.6625 32.0856 34 32.0856C36.3375 32.0856 38.25 34.0007 38.25 36.3407C38.25 38.6807 36.3375 40.5958 34 40.5958Z" fill="black" fill-opacity="0.15"/>
</svg>
