<svg width="68" height="68" viewBox="0 0 68 68" fill="none" xmlns="http://www.w3.org/2000/svg">
<path d="M61.4174 27.2574H57.9042C57.7387 26.5555 57.3412 25.9301 56.7761 25.4822C56.211 25.0343 55.5114 24.79 54.7903 24.789H51.9253C51.6088 24.0678 51.1189 23.4361 50.4991 22.9501L53.051 22.9305C53.1589 22.9297 53.2655 22.907 53.3643 22.8637C53.4632 22.8205 53.5522 22.7577 53.6261 22.679C53.6999 22.6004 53.757 22.5075 53.7939 22.4061C53.8308 22.3048 53.8467 22.1969 53.8407 22.0892C53.7897 21.4507 53.6599 20.8209 53.4541 20.2143C52.9971 18.8757 51.5853 18.0229 49.8527 18.0317C48.8272 18.0391 46.9918 18.0462 46.1307 18.0492L44.4364 14.9814C43.2411 12.8743 41.5027 10.4599 38.641 10.4599H38.6035L17.8958 10.6118C15.5469 10.6292 13.4755 12.2671 12.0616 15.2245L10.3402 18.3282C9.47907 18.3329 7.61757 18.3431 6.58469 18.3507C4.85414 18.364 3.45324 19.2405 3.01575 20.5862C2.81905 21.1958 2.6986 21.8275 2.65716 22.4667C2.65277 22.574 2.67014 22.6812 2.70822 22.7816C2.74629 22.8821 2.8043 22.9738 2.87873 23.0513C2.95317 23.1288 3.04251 23.1904 3.14138 23.2325C3.24024 23.2745 3.34659 23.2962 3.45403 23.2961H3.46094L5.95396 23.2746C4.86583 24.1658 4.1776 25.5988 4.18968 27.2389C4.18996 27.2723 4.19231 27.3057 4.19672 27.3389L5.48288 36.931C5.50142 37.5938 5.74806 38.2299 6.18117 38.7319C6.61428 39.2339 7.20733 39.5711 7.86022 39.6866L7.88267 42.728C7.88624 43.2128 8.08129 43.6765 8.42531 44.0181C8.76932 44.3597 9.23441 44.5514 9.7192 44.5515H9.73248L12.8909 44.5283C13.3781 44.5247 13.8438 44.3277 14.1858 43.9806C14.5277 43.6336 14.7178 43.165 14.7143 42.6778L14.6924 39.6856L38.916 39.5071V53.6147C38.9173 54.6556 39.3314 55.6535 40.0675 56.3896C40.8035 57.1256 41.8014 57.5397 42.8424 57.541H61.4174C62.4583 57.5397 63.4562 57.1256 64.1923 56.3896C64.9283 55.6535 65.3424 54.6556 65.3437 53.6147V31.1837C65.3424 30.1428 64.9283 29.1448 64.1923 28.4088C63.4562 27.6727 62.4583 27.2587 61.4174 27.2574ZM56.3956 27.9878C56.3952 28.4134 56.2259 28.8215 55.9249 29.1224C55.624 29.4234 55.2159 29.5927 54.7903 29.5931H49.4685C49.2565 29.5951 49.0462 29.555 48.8497 29.4752C48.6533 29.3954 48.4746 29.2774 48.324 29.1282C48.1734 28.9789 48.0538 28.8013 47.9722 28.6056C47.8906 28.4099 47.8486 28.1999 47.8486 27.9879C47.8486 27.7759 47.8906 27.5659 47.9722 27.3702C48.0538 27.1745 48.1734 26.9969 48.324 26.8476C48.4746 26.6984 48.6533 26.5804 48.8497 26.5006C49.0462 26.4208 49.2565 26.3807 49.4685 26.3827H54.7903C55.2159 26.3831 55.624 26.5524 55.9249 26.8533C56.2259 27.1543 56.3952 27.5623 56.3956 27.988V27.9878ZM49.8644 19.6258H49.8899C50.8952 19.6258 51.7197 20.0676 51.9459 20.7299C52.0143 20.9315 52.0719 21.1366 52.1185 21.3443L47.9672 21.3764L47.0087 19.6403C47.9287 19.6364 49.1131 19.6313 49.8644 19.6258ZM13.4672 15.9764C13.4753 15.9619 13.4828 15.9472 13.4899 15.9323C14.1486 14.5479 15.5987 12.2227 17.9075 12.2057L38.6152 12.0531H38.6411C40.254 12.0531 41.5741 13.1661 43.0456 15.7593L46.5191 22.051L42.9094 22.0775C42.7426 20.8539 42.1381 19.7321 41.2077 18.9198C40.2774 18.1076 39.0843 17.66 37.8493 17.6598H37.8108C36.5696 17.6705 35.3746 18.1321 34.4485 18.9586C33.5225 19.7851 32.9284 20.9201 32.7772 22.152L9.94856 22.3203L13.4672 15.9764ZM41.2974 22.0894L34.3896 22.1402C34.537 21.3351 34.9603 20.6065 35.5867 20.0797C36.2131 19.5528 37.0035 19.2607 37.8219 19.2535H37.8485C38.6628 19.2538 39.4518 19.5367 40.0807 20.0539C40.7097 20.5711 41.1397 21.2906 41.2972 22.0895L41.2974 22.0894ZM4.53141 21.0792C4.74975 20.408 5.57956 19.952 6.59638 19.9446C7.34531 19.939 8.53053 19.9321 9.45357 19.927L8.49307 21.6588L4.36818 21.6945C4.4117 21.4867 4.46618 21.2813 4.53141 21.0792ZM13.1196 42.6903C13.1201 42.7223 13.1142 42.7541 13.1022 42.7838C13.0902 42.8134 13.0723 42.8404 13.0496 42.863C13.0273 42.8858 13.0006 42.904 12.9712 42.9164C12.9418 42.9289 12.9102 42.9354 12.8783 42.9356L9.71999 42.9589C9.6879 42.9601 9.65592 42.9544 9.62616 42.9424C9.5964 42.9303 9.56953 42.9121 9.54734 42.8889C9.5244 42.8666 9.50616 42.8399 9.4937 42.8105C9.48125 42.781 9.47483 42.7494 9.47482 42.7174L9.45278 39.7243L13.0977 39.6978L13.1196 42.6903ZM8.36717 38.139H8.3576C8.01902 38.1385 7.6943 38.0044 7.45404 37.7659C7.21377 37.5273 7.07737 37.2036 7.0745 36.865C7.07422 36.8316 7.07187 36.7982 7.06746 36.765L5.78197 27.179C5.78914 25.2146 7.12046 24.0048 8.46385 23.9129C8.50537 23.9199 8.54738 23.9237 8.58949 23.924H8.59534L47.839 23.6349C47.8449 23.6349 47.8507 23.6358 47.8566 23.6358H47.8831C48.3171 23.6384 48.7441 23.7444 49.129 23.945C49.5138 24.1456 49.8452 24.435 50.0959 24.7892H49.4684C48.7473 24.7902 48.0476 25.0344 47.4826 25.4823C46.9175 25.9302 46.52 26.5557 46.3545 27.2575H42.8414C41.8005 27.2588 40.8026 27.6729 40.0665 28.4089C39.3305 29.145 38.9164 30.1429 38.9151 31.1838V37.914L8.36717 38.139ZM63.75 53.6147C63.7493 54.2331 63.5033 54.826 63.066 55.2633C62.6287 55.7006 62.0358 55.9465 61.4174 55.9473H42.8414C42.223 55.9465 41.6301 55.7006 41.1928 55.2633C40.7555 54.826 40.5096 54.2331 40.5089 53.6147V31.1837C40.5096 30.5653 40.7555 29.9724 41.1928 29.5351C41.6301 29.0978 42.223 28.8518 42.8414 28.8511H46.3887C46.5777 29.5227 46.9808 30.1142 47.5367 30.5358C48.0926 30.9574 48.7708 31.1861 49.4685 31.187H54.7903C55.488 31.186 56.1663 30.9574 56.7221 30.5358C57.278 30.1142 57.6811 29.5227 57.8701 28.8511H61.4174C62.0358 28.8518 62.6287 29.0978 63.066 29.5351C63.5033 29.9724 63.7493 30.5653 63.75 31.1837V53.6147Z" fill="black"/>
<path d="M52.1285 34.5607C50.5782 34.5607 49.0628 35.0204 47.7738 35.8817C46.4848 36.743 45.4802 37.9671 44.8869 39.3994C44.2937 40.8316 44.1385 42.4076 44.4409 43.9281C44.7433 45.4485 45.4898 46.8452 46.586 47.9414C47.6822 49.0375 49.0789 49.7841 50.5993 50.0865C52.1198 50.3889 53.6958 50.2337 55.128 49.6405C56.5603 49.0472 57.7844 48.0426 58.6457 46.7536C59.507 45.4646 59.9667 43.9492 59.9667 42.3989C59.9643 40.3208 59.1378 38.3285 57.6683 36.8591C56.1989 35.3896 54.2066 34.5631 52.1285 34.5607ZM52.1285 48.6432C50.8934 48.6432 49.6861 48.277 48.6592 47.5908C47.6323 46.9047 46.832 45.9294 46.3594 44.7884C45.8867 43.6474 45.7631 42.3918 46.004 41.1805C46.245 39.9692 46.8397 38.8566 47.713 37.9833C48.5863 37.11 49.699 36.5152 50.9103 36.2743C52.1216 36.0334 53.3772 36.1571 54.5182 36.6297C55.6592 37.1024 56.6345 37.9027 57.3206 38.9297C58.0067 39.9566 58.3729 41.1639 58.3729 42.3989C58.371 44.0545 57.7125 45.6416 56.5419 46.8123C55.3712 47.9829 53.784 48.6414 52.1285 48.6432Z" fill="black"/>
<path d="M55.3276 39.8024L51.212 43.7336L49.1086 41.6303C49.0346 41.5563 48.9468 41.4976 48.8501 41.4576C48.7534 41.4175 48.6498 41.3969 48.5451 41.3969C48.4405 41.3969 48.3369 41.4175 48.2402 41.4576C48.1435 41.4976 48.0557 41.5563 47.9817 41.6304C47.9077 41.7044 47.849 41.7922 47.8089 41.8889C47.7689 41.9856 47.7483 42.0892 47.7483 42.1939C47.7483 42.2985 47.7689 42.4021 47.809 42.4988C47.849 42.5955 47.9077 42.6833 47.9817 42.7573L50.6359 45.4112C50.783 45.5584 50.9819 45.6422 51.19 45.6447C51.3982 45.6472 51.599 45.5682 51.7496 45.4245L56.4285 40.9555C56.5813 40.8095 56.6699 40.6088 56.6747 40.3975C56.6796 40.1862 56.6003 39.9816 56.4543 39.8288C56.3083 39.6759 56.1076 39.5873 55.8963 39.5825C55.685 39.5776 55.4804 39.6569 55.3276 39.8029V39.8024Z" fill="black"/>
<path d="M11.4305 27.9675H11.4087C10.6256 27.9703 9.87562 28.284 9.32384 28.8398C8.77206 29.3955 8.46365 30.1477 8.46645 30.9308C8.46925 31.714 8.78304 32.4639 9.33878 33.0157C9.89452 33.5675 10.6467 33.8759 11.4298 33.8731H11.4523C12.2354 33.8703 12.9853 33.5564 13.5371 33.0007C14.0889 32.4449 14.3972 31.6927 14.3944 30.9096C14.3916 30.1264 14.0777 29.3765 13.522 28.8248C12.9662 28.273 12.214 27.9646 11.4309 27.9675H11.4305ZM12.3983 31.8748C12.2414 32.034 12.0477 32.1521 11.8343 32.2186C11.6209 32.2851 11.3943 32.2979 11.1748 32.2559C10.9552 32.2139 10.7494 32.1185 10.5756 31.9779C10.4017 31.8374 10.2652 31.6562 10.1782 31.4503C10.0911 31.2444 10.0562 31.0202 10.0764 30.7976C10.0967 30.575 10.1716 30.3608 10.2944 30.1741C10.4172 29.9873 10.5842 29.8337 10.7806 29.7269C10.9769 29.6201 11.1966 29.5634 11.4201 29.5617H11.4302C11.6981 29.5618 11.96 29.6411 12.183 29.7896C12.406 29.9381 12.5802 30.1491 12.6836 30.3963C12.7871 30.6434 12.8152 30.9156 12.7644 31.1787C12.7136 31.4417 12.5863 31.6839 12.3983 31.8748Z" fill="black"/>
<path d="M34.4527 34.6983H34.4467L22.2342 34.7884C22.0229 34.7891 21.8205 34.8738 21.6716 35.0238C21.5227 35.1737 21.4394 35.3767 21.4402 35.5881C21.4409 35.7994 21.5256 36.0018 21.6756 36.1507C21.8256 36.2996 22.0286 36.3829 22.2399 36.3821H22.2459L34.4584 36.292C34.6698 36.2913 34.8721 36.2066 35.0211 36.0566C35.17 35.9067 35.2532 35.7037 35.2524 35.4923C35.2517 35.281 35.167 35.0786 35.017 34.9297C34.867 34.7808 34.6641 34.6976 34.4527 34.6983Z" fill="black"/>
<path d="M22.8038 31.7896H22.8098C22.9145 31.7889 23.0179 31.7675 23.1143 31.7267C23.2107 31.686 23.2982 31.6266 23.3716 31.5521C23.4451 31.4775 23.5031 31.3892 23.5424 31.2922C23.5818 31.1952 23.6016 31.0914 23.6008 30.9868L23.5862 29.0002C23.5847 28.7898 23.5 28.5886 23.3508 28.4405C23.2015 28.2923 22.9997 28.2091 22.7893 28.2091H22.7834C22.6787 28.2099 22.5752 28.2313 22.4789 28.272C22.3825 28.3128 22.295 28.3721 22.2216 28.4467C22.1481 28.5212 22.0901 28.6095 22.0507 28.7065C22.0114 28.8034 21.9916 28.9072 21.9923 29.0119L22.0069 30.9986C22.0085 31.2089 22.0931 31.4101 22.2424 31.5583C22.3917 31.7065 22.5935 31.7896 22.8038 31.7896Z" fill="black"/>
<path d="M19.1095 28.2359H19.1036C18.9989 28.2366 18.8954 28.258 18.799 28.2988C18.7027 28.3395 18.6152 28.3989 18.5418 28.4734C18.4683 28.5479 18.4103 28.6362 18.3709 28.7332C18.3316 28.8302 18.3118 28.9339 18.3125 29.0386L18.3271 31.0253C18.3287 31.2357 18.4133 31.4369 18.5626 31.585C18.7119 31.7332 18.9137 31.8164 19.124 31.8164H19.13C19.2346 31.8156 19.3381 31.7942 19.4345 31.7535C19.5309 31.7127 19.6183 31.6534 19.6918 31.5788C19.7652 31.5043 19.8233 31.416 19.8626 31.319C19.9019 31.2221 19.9218 31.1183 19.921 31.0136L19.9064 29.0269C19.9049 28.8166 19.8202 28.6154 19.671 28.4672C19.5217 28.319 19.3199 28.2359 19.1095 28.2359Z" fill="black"/>
<path d="M37.5025 28.1007C37.3978 28.1014 37.2944 28.1228 37.198 28.1635C37.1016 28.2043 37.0142 28.2636 36.9407 28.3382C36.8673 28.4127 36.8092 28.501 36.7699 28.598C36.7305 28.695 36.7107 28.7987 36.7114 28.9034L36.7261 30.8901C36.7276 31.1005 36.8122 31.3016 36.9615 31.4498C37.1108 31.598 37.3126 31.6812 37.5229 31.6812H37.5289C37.6336 31.6804 37.7371 31.659 37.8334 31.6182C37.9298 31.5775 38.0173 31.5181 38.0907 31.4436C38.1642 31.369 38.2222 31.2807 38.2616 31.1837C38.3009 31.0867 38.3207 30.983 38.3199 30.8783L38.3053 28.8916C38.303 28.6804 38.2174 28.4788 38.0669 28.3306C37.9165 28.1824 37.7136 28.0998 37.5025 28.1007Z" fill="black"/>
<path d="M26.4835 31.7625H26.4895C26.5941 31.7617 26.6976 31.7403 26.794 31.6996C26.8904 31.6588 26.9778 31.5994 27.0513 31.5249C27.1247 31.4503 27.1828 31.362 27.2221 31.2651C27.2615 31.1681 27.2813 31.0643 27.2805 30.9596L27.2659 28.9729C27.2643 28.7615 27.1789 28.5595 27.0283 28.4111C26.8778 28.2628 26.6745 28.1803 26.4631 28.1819C26.2518 28.1835 26.0497 28.2689 25.9014 28.4195C25.753 28.57 25.6706 28.7733 25.6721 28.9847L25.6868 30.9714C25.6883 31.1817 25.7729 31.3829 25.9222 31.5311C26.0714 31.6793 26.2732 31.7624 26.4835 31.7625Z" fill="black"/>
<path d="M30.1631 31.7352H30.1691C30.2737 31.7345 30.3772 31.7131 30.4736 31.6723C30.57 31.6316 30.6574 31.5722 30.7308 31.4977C30.8043 31.4231 30.8623 31.3349 30.9017 31.2379C30.941 31.1409 30.9609 31.0371 30.9601 30.9325L30.9451 28.9458C30.9436 28.7354 30.8589 28.5342 30.7096 28.3861C30.5604 28.2379 30.3586 28.1547 30.1482 28.1547H30.1422C29.9309 28.1563 29.7289 28.2418 29.5806 28.3923C29.4322 28.5428 29.3498 28.7461 29.3513 28.9574L29.3658 30.9442C29.3674 31.1546 29.4521 31.3558 29.6014 31.504C29.7508 31.6522 29.9527 31.7353 30.1631 31.7352Z" fill="black"/>
<path d="M33.843 31.7082H33.849C33.9536 31.7074 34.0571 31.6861 34.1535 31.6453C34.2499 31.6045 34.3373 31.5452 34.4108 31.4706C34.4843 31.3961 34.5423 31.3078 34.5816 31.2108C34.621 31.1138 34.6408 31.01 34.64 30.9054L34.6254 28.9186C34.6238 28.7083 34.5392 28.5072 34.3899 28.359C34.2406 28.2108 34.0388 28.1277 33.8285 28.1277H33.8226C33.7179 28.1285 33.6144 28.1499 33.518 28.1906C33.4217 28.2314 33.3342 28.2907 33.2608 28.3652C33.1873 28.4398 33.1293 28.5281 33.0899 28.625C33.0506 28.722 33.0307 28.8258 33.0315 28.9304L33.0461 30.9172C33.0477 31.1275 33.1323 31.3287 33.2816 31.4769C33.4309 31.6251 33.6327 31.7082 33.843 31.7082Z" fill="black"/>
</svg>
