<svg width="68" height="68" viewBox="0 0 68 68" fill="none" xmlns="http://www.w3.org/2000/svg">
<path d="M55.2486 27.9584C57.1371 27.9584 58.6564 26.4248 58.6564 24.5505C58.6564 22.6762 57.1229 21.1427 55.2486 21.1427C53.3743 21.1427 51.8408 22.6762 51.8408 24.5505C51.8408 26.4248 53.3743 27.9584 55.2486 27.9584ZM55.2486 23.2726C55.9586 23.2726 56.5266 23.8548 56.5266 24.5505C56.5266 25.2605 55.9586 25.8285 55.2486 25.8285C54.5387 25.8285 53.9707 25.2605 53.9707 24.5505C53.9707 23.8406 54.5387 23.2726 55.2486 23.2726Z" fill="black"/>
<path d="M20.9438 44.4291C21.532 44.4291 22.0088 43.9523 22.0088 43.3642C22.0088 42.776 21.532 42.2992 20.9438 42.2992C20.3557 42.2992 19.8789 42.776 19.8789 43.3642C19.8789 43.9523 20.3557 44.4291 20.9438 44.4291Z" fill="black"/>
<path d="M33.9927 62.2777C44.3723 62.2777 52.8066 53.8291 52.8066 43.4637C52.8066 33.0841 44.3723 24.6498 33.9927 24.6498C23.613 24.6498 15.1787 33.0841 15.1787 43.4637C15.1787 53.8433 23.613 62.2777 33.9927 62.2777ZM33.9927 26.7797C43.1937 26.7797 50.6767 34.2626 50.6767 43.4637C50.6767 52.6648 43.1937 60.1478 33.9927 60.1478C24.7916 60.1478 17.3086 52.6648 17.3086 43.4637C17.3086 34.2626 24.7916 26.7797 33.9927 26.7797Z" fill="black"/>
<path d="M59.3666 0H8.43408C6.2474 0 4.5293 1.70391 4.5293 3.89058V63.939C4.5293 66.2535 6.2048 68 8.43408 68H59.3808C61.6669 68 63.4702 66.2109 63.4702 63.939V3.89058C63.456 1.74651 61.6243 0 59.3666 0ZM61.3261 63.9532C61.3261 65.1601 60.3322 65.8843 59.3666 65.8843H8.43408C7.38334 65.8843 6.65918 65.0891 6.65918 63.9532V18.5584H61.3261V63.9532ZM61.3403 16.4285H6.67338V3.89058C6.65918 2.88244 7.42594 2.12988 8.43408 2.12988H59.3808C60.4458 2.12988 61.3403 2.93924 61.3403 3.89058V16.4285Z" fill="black"/>
<path d="M54.5813 5.83583H46.4168C44.0455 5.83583 42.3274 7.53973 42.3274 9.8968C42.3274 12.1119 44.0881 13.7874 46.4168 13.7874H54.5813C56.91 13.7874 58.6565 12.1119 58.6707 9.8968C58.6707 7.53973 56.9526 5.83583 54.5813 5.83583ZM54.5813 11.6575H46.4168C45.2666 11.6575 44.4573 10.9333 44.4573 9.8968C44.4573 8.73247 45.224 7.96571 46.4168 7.96571H54.5813C55.774 7.96571 56.5408 8.71827 56.5408 9.8968C56.5408 10.9333 55.7314 11.6575 54.5813 11.6575Z" fill="black"/>
<path d="M33.0126 31.6215C33.5948 31.5789 34.0492 31.0678 34.0066 30.4856C33.964 29.9034 33.4528 29.4491 32.8706 29.4917C26.9212 29.875 21.8947 33.9502 20.3753 39.6441C20.2191 40.212 20.5599 40.7942 21.1279 40.9504C21.2131 40.9788 21.3125 40.993 21.3977 40.993C21.8663 40.993 22.2922 40.6806 22.4342 40.1979C23.7263 35.3843 27.9719 31.9481 33.0126 31.6215Z" fill="black"/>
</svg>
