<svg width="64" height="62" viewBox="0 0 64 62" fill="none" xmlns="http://www.w3.org/2000/svg">
<path d="M47.2734 0.242117C43.9263 0.245894 40.6622 1.2843 37.9281 3.21511C35.1941 5.14593 33.1237 7.87474 32.0007 11.0278C30.8796 7.87239 28.81 5.14091 26.0756 3.20783C23.3412 1.27474 20.0759 0.234664 16.7272 0.230164C11.3685 0.230164 7.01704 2.41759 4.14338 6.55589C1.8088 9.91684 0.523438 14.4568 0.523438 19.3392C0.523438 24.4622 2.17191 29.8856 5.42302 35.4589C7.99666 39.8708 11.5782 44.3912 16.0682 48.8943C23.6867 56.5354 31.4176 61.5705 31.4948 61.6206C31.6457 61.7183 31.8217 61.7701 32.0014 61.7698C32.1812 61.7696 32.357 61.7172 32.5076 61.619C32.5848 61.5687 40.3147 56.5006 47.9325 48.8435C52.4215 44.3308 56.0032 39.8087 58.5767 35.4029C61.828 29.8359 63.4766 24.4307 63.4766 19.3374C63.4766 10.0805 57.7978 0.242117 47.2734 0.242117ZM46.6383 47.5088C42.1307 52.0064 37.2314 56.0936 31.9984 59.7217C26.7645 56.114 21.8655 52.0431 17.3606 47.558C13.9617 44.1458 11.1051 40.7328 8.83086 37.3752H22.4375C22.6186 37.3751 22.7958 37.3222 22.9472 37.2229C23.0987 37.1236 23.2178 36.9822 23.29 36.8162L24.1872 34.7528L26.0507 42.2802C26.1017 42.4862 26.2216 42.6685 26.3906 42.7969C26.5596 42.9253 26.7674 42.992 26.9795 42.986C27.1916 42.9799 27.3953 42.9015 27.5567 42.7637C27.7181 42.6259 27.8275 42.4371 27.8667 42.2285L30.3549 28.9932L32.5384 46.4306C32.5658 46.6494 32.6701 46.8514 32.8326 47.0004C32.9951 47.1494 33.2054 47.2359 33.4257 47.2442C33.4377 47.2442 33.4495 47.2442 33.4613 47.2442C33.6757 47.2441 33.8835 47.1699 34.0495 47.0342C34.2154 46.8984 34.3294 46.7095 34.372 46.4994L37.0912 33.0966L38.5477 37.9146C38.605 38.1046 38.722 38.2709 38.8813 38.3891C39.0406 38.5072 39.2338 38.5708 39.4322 38.5705H39.4375C39.6349 38.5715 39.8274 38.5094 39.9869 38.3932C40.1465 38.2771 40.2647 38.1129 40.3243 37.9247L41.3548 34.6491L42.0154 36.4924C42.08 36.6728 42.1987 36.829 42.3554 36.9394C42.512 37.0499 42.6989 37.1093 42.8906 37.1095H55.3086C53.012 40.5324 50.1074 44.0188 46.6383 47.5088ZM61.6172 19.3374C61.6172 24.0921 60.057 29.1768 56.98 34.4497C56.8246 34.7161 56.6653 34.9829 56.5019 35.2502H43.5449L42.172 31.422C42.1063 31.2387 41.9846 31.0807 41.8243 30.9702C41.664 30.8598 41.473 30.8024 41.2784 30.8063C41.0837 30.8102 40.8952 30.8751 40.7394 30.9918C40.5836 31.1086 40.4683 31.2713 40.41 31.457L39.4553 34.4941L37.8039 29.0256C37.744 28.8274 37.6197 28.6549 37.4507 28.5354C37.2816 28.4159 37.0775 28.3562 36.8707 28.3658C36.6638 28.3755 36.4662 28.4539 36.309 28.5886C36.1518 28.7233 36.044 28.9067 36.0028 29.1096L33.6786 40.5682L31.462 22.8661C31.4344 22.6461 31.3292 22.4433 31.1652 22.2941C31.0013 22.145 30.7895 22.0592 30.5679 22.0525C30.3464 22.0457 30.1297 22.1183 29.957 22.2572C29.7843 22.396 29.6668 22.5921 29.6258 22.8099L26.8288 37.6859L25.3328 31.6401C25.2861 31.4514 25.1814 31.2821 25.0335 31.156C24.8856 31.0299 24.7018 30.9534 24.5081 30.9371C24.3144 30.9208 24.1205 30.9657 23.9537 31.0654C23.7868 31.165 23.6553 31.3145 23.5778 31.4928L21.828 35.5158H7.62718C7.41946 35.1788 7.21546 34.8424 7.02009 34.5064C3.94309 29.2272 2.38281 24.1242 2.38281 19.3392C2.38281 11.382 6.13941 2.08967 16.7266 2.08967C20.5305 2.09502 24.1769 3.60902 26.866 6.29953C29.555 8.99004 31.067 12.6373 31.0703 16.4413C31.0703 16.6878 31.1683 16.9243 31.3426 17.0986C31.517 17.273 31.7534 17.3709 32 17.3709C32.2466 17.3709 32.483 17.273 32.6574 17.0986C32.8317 16.9243 32.9297 16.6878 32.9297 16.4413C32.9345 12.6389 34.4474 8.99372 37.1364 6.30542C39.8255 3.61712 43.4711 2.10525 47.2734 2.10149C52.8002 2.10149 56.1535 5.11262 57.9937 7.63858C60.2965 10.7994 61.6172 15.0639 61.6172 19.3374Z" fill="black"/>
</svg>
