<svg width="68" height="68" viewBox="0 0 68 68" fill="none" xmlns="http://www.w3.org/2000/svg">
<path d="M23.375 63.3516H44.625C46.2447 63.3497 47.7976 62.7055 48.943 61.5602C50.0883 60.4148 50.7325 58.8619 50.7344 57.2422V10.7578C50.7325 9.13807 50.0883 7.58518 48.943 6.43985C47.7976 5.29452 46.2447 4.65027 44.625 4.64844H23.375C21.7553 4.65027 20.2024 5.29452 19.057 6.43985C17.9117 7.58518 17.2675 9.13807 17.2656 10.7578V57.2422C17.2675 58.8619 17.9117 60.4148 19.057 61.5602C20.2024 62.7055 21.7553 63.3497 23.375 63.3516ZM23.375 6.24219H44.625C45.8222 6.24352 46.97 6.7197 47.8166 7.56626C48.6631 8.41281 49.1393 9.5606 49.1406 10.7578V12.6172H47.2812C47.0699 12.6172 46.8672 12.7011 46.7178 12.8506C46.5683 13 46.4844 13.2027 46.4844 13.4141C46.4844 13.6254 46.5683 13.8281 46.7178 13.9775C46.8672 14.127 47.0699 14.2109 47.2812 14.2109H49.1406V52.1953H18.8594V14.2109H40.5078C40.7192 14.2109 40.9218 14.127 41.0713 13.9775C41.2207 13.8281 41.3047 13.6254 41.3047 13.4141C41.3047 13.2027 41.2207 13 41.0713 12.8506C40.9218 12.7011 40.7192 12.6172 40.5078 12.6172H18.8594V10.7578C18.8607 9.5606 19.3369 8.41281 20.1834 7.56626C21.03 6.7197 22.1778 6.24352 23.375 6.24219ZM18.8594 53.7891H49.1406V57.2422C49.1393 58.4394 48.6631 59.5872 47.8166 60.4337C46.97 61.2803 45.8222 61.7565 44.625 61.7578H23.375C22.1778 61.7565 21.03 61.2803 20.1834 60.4337C19.3369 59.5872 18.8607 58.4394 18.8594 57.2422V53.7891Z" fill="black"/>
<path d="M43.124 14.2109H44.5996C44.8109 14.2109 45.0136 14.127 45.163 13.9775C45.3125 13.8281 45.3964 13.6254 45.3964 13.4141C45.3964 13.2027 45.3125 13 45.163 12.8506C45.0136 12.7011 44.8109 12.6172 44.5996 12.6172H43.124C42.9127 12.6172 42.71 12.7011 42.5605 12.8506C42.4111 13 42.3271 13.2027 42.3271 13.4141C42.3271 13.6254 42.4111 13.8281 42.5605 13.9775C42.71 14.127 42.9127 14.2109 43.124 14.2109Z" fill="black"/>
<path d="M34 60.5625C34.5516 60.5625 35.0909 60.3989 35.5495 60.0925C36.0082 59.786 36.3657 59.3504 36.5768 58.8408C36.7879 58.3311 36.8431 57.7704 36.7355 57.2293C36.6279 56.6883 36.3622 56.1913 35.9722 55.8013C35.5821 55.4112 35.0852 55.1456 34.5441 55.038C34.0031 54.9304 33.4423 54.9856 32.9327 55.1967C32.423 55.4078 31.9874 55.7653 31.681 56.2239C31.3745 56.6826 31.2109 57.2218 31.2109 57.7734C31.2118 58.5129 31.5059 59.2218 32.0288 59.7447C32.5516 60.2675 33.2606 60.5617 34 60.5625ZM34 56.5781C34.2364 56.5781 34.4675 56.6482 34.6641 56.7796C34.8607 56.9109 35.0139 57.0976 35.1043 57.316C35.1948 57.5344 35.2185 57.7748 35.1724 58.0066C35.1262 58.2385 35.0124 58.4515 34.8452 58.6187C34.6781 58.7858 34.4651 58.8997 34.2332 58.9458C34.0013 58.9919 33.761 58.9682 33.5426 58.8778C33.3242 58.7873 33.1375 58.6341 33.0061 58.4375C32.8748 58.241 32.8047 58.0099 32.8047 57.7734C32.805 57.4565 32.9311 57.1527 33.1552 56.9286C33.3793 56.7045 33.6831 56.5785 34 56.5781Z" fill="black"/>
</svg>
