<svg width="49" height="49" viewBox="0 0 49 49" fill="none" xmlns="http://www.w3.org/2000/svg">
<circle cx="24.5" cy="24.5" r="24.5" fill="#EDEDED"/>
<mask id="mask0" mask-type="alpha" maskUnits="userSpaceOnUse" x="0" y="0" width="49" height="49">
<circle cx="24.5" cy="24.5" r="24.5" fill="#EDEDED"/>
</mask>
<g mask="url(#mask0)">
<path d="M32.4033 32.9124C34.6613 34.0292 36.0936 34.7679 36.9496 35.6141C38.8454 37.4904 38.9899 40.6383 38.9997 41.2497C39.0004 41.294 38.9998 41.3383 38.998 41.3824H39V54H10V41.3824H10.002C10.0002 41.3386 9.99959 41.2946 10.0003 41.2506C10.0101 40.6381 10.1535 37.4901 12.0496 35.6138C12.9061 34.7674 14.3385 34.0288 16.5957 32.9122C17.734 32.3505 19.6282 31.4141 20.0887 30.9843C18.1642 28.647 17.0488 26.0074 17.0488 23.6953C17.0488 22.1271 17.0488 20.1757 17.9376 18.4349C18.737 16.8676 20.5252 15 24.5004 15C28.4748 15 30.263 16.8676 31.0632 18.4352C31.9509 20.1757 31.9509 22.1273 31.9509 23.6955C31.9509 26.0067 30.8347 28.647 28.9114 30.9846C29.3695 31.4123 31.2561 32.3451 32.3953 32.9083L32.4033 32.9124Z" fill="white"/>
</g>
</svg>
