<svg width="54" height="66" viewBox="0 0 54 66" fill="none" xmlns="http://www.w3.org/2000/svg">
<path d="M32.7881 23.6367C34.0443 23.7065 35.2259 24.2555 36.0894 25.1706C36.9529 26.0856 37.4326 27.297 37.4295 28.5552V33.9297H37.124C36.9127 33.9297 36.71 34.0136 36.5606 34.1631C36.4111 34.3125 36.3272 34.5152 36.3272 34.7266C36.3272 34.9379 36.4111 35.1406 36.5606 35.29C36.71 35.4395 36.9127 35.5234 37.124 35.5234H47.1485C47.3598 35.5234 47.5625 35.4395 47.7119 35.29C47.8614 35.1406 47.9453 34.9379 47.9453 34.7266C47.9453 34.5152 47.8614 34.3125 47.7119 34.1631C47.5625 34.0136 47.3598 33.9297 47.1485 33.9297H46.992V26.2664C46.992 19.517 41.5002 14.0078 34.7508 14.0078H32.1545C31.9506 12.9987 31.4436 12.0758 30.7011 11.3625C29.9587 10.6492 29.0163 10.1795 27.9998 10.0161V5.77344H37.5825C38.6859 5.77344 39.5545 4.8387 39.5545 3.7353V2.32921C39.5574 2.06806 39.5086 1.80891 39.4109 1.5667C39.3132 1.32449 39.1685 1.10402 38.9852 0.918003C38.8019 0.73198 38.5836 0.584085 38.3428 0.482845C38.1021 0.381604 37.8437 0.32902 37.5825 0.328125H13.8622C12.758 0.328125 11.7967 1.2258 11.7967 2.32921V3.7353C11.8102 4.27619 12.0329 4.79076 12.418 5.17085C12.8031 5.55094 13.3205 5.76694 13.8615 5.77344H23.3514V10.0161C21.3592 10.3504 19.6741 12.0156 19.2894 14.0078H8.34357V10.6291C8.34357 10.1891 7.99281 9.89062 7.5528 9.89062H1.26838C1.16884 9.88476 1.06917 9.89967 0.975701 9.93441C0.882235 9.96915 0.797019 10.0229 0.72547 10.0924C0.653922 10.1618 0.597605 10.2454 0.560102 10.3378C0.522599 10.4302 0.504729 10.5294 0.507628 10.6291V27.3875C0.507628 27.8276 0.828238 28.2188 1.26838 28.2188H7.5528C7.76698 28.2107 7.96952 28.1192 8.11724 27.9639C8.26496 27.8086 8.34618 27.6018 8.34357 27.3875V23.5703H18.0615C18.3381 25.3194 19.2279 26.913 20.5717 28.0662C21.9156 29.2194 23.6258 29.857 25.3965 29.865C27.1673 29.873 28.8832 29.2508 30.2374 28.1098C31.5916 26.9687 32.4957 25.3832 32.7881 23.6367ZM39.0233 33.9297V31.9375H45.3983V33.9297H39.0233ZM37.9608 3.77235C37.9608 3.88038 37.9178 3.98399 37.8414 4.06038C37.7651 4.13677 37.6614 4.17969 37.5534 4.17969H13.7978C13.7443 4.17969 13.6913 4.16915 13.6419 4.14868C13.5925 4.12821 13.5476 4.09821 13.5097 4.06038C13.4719 4.02256 13.4419 3.97765 13.4214 3.92823C13.401 3.87881 13.3904 3.82584 13.3904 3.77235V2.32921C13.3904 2.27572 13.401 2.22275 13.4214 2.17333C13.4419 2.12391 13.4719 2.07901 13.5097 2.04118C13.5476 2.00336 13.5925 1.97335 13.6419 1.95288C13.6913 1.93241 13.7443 1.92188 13.7978 1.92188H37.5534C37.6614 1.92188 37.7651 1.96479 37.8414 2.04118C37.9178 2.11757 37.9608 2.22118 37.9608 2.32921V3.77235ZM26.4061 5.77344V9.89062H24.9451V5.77344H26.4061ZM24.1962 11.4844H27.2478C27.9944 11.4883 28.719 11.7373 29.3102 12.1933C29.9014 12.6492 30.3264 13.2867 30.5198 14.0078H20.9242C21.1177 13.2867 21.5427 12.6492 22.1339 12.1933C22.725 11.7373 23.4496 11.4883 24.1962 11.4844ZM6.74982 26.625H2.10138V11.4844H6.74982V26.625ZM8.34357 15.6016H10.867V21.9766H8.34357V15.6016ZM25.4357 28.3018C23.9367 28.294 22.4967 27.7166 21.4074 26.6868C20.3181 25.6569 19.6609 24.2515 19.5691 22.7552C19.5581 22.5495 19.4702 22.3553 19.3229 22.2111C19.1757 22.067 18.9797 21.9833 18.7737 21.9766H12.4608V15.6016H34.7508C37.5755 15.6088 40.2821 16.7353 42.2778 18.7343C44.2735 20.7333 45.3956 23.4417 45.3983 26.2664V30.3438H39.0233V28.5552C39.0233 24.9607 36.1404 21.9766 32.546 21.9766H32.0976C31.8916 21.9833 31.6957 22.067 31.5484 22.2111C31.4011 22.3553 31.3133 22.5495 31.3022 22.7552C31.2105 24.2515 30.5534 25.6569 29.4641 26.6868C28.3748 27.7167 26.9348 28.294 25.4357 28.3018Z" fill="black"/>
<path d="M52.1578 50.5946L43.3976 38.3606C43.3253 38.2541 43.2291 38.1661 43.1167 38.1035C43.0043 38.0409 42.8788 38.0054 42.7502 38C42.6219 38.0055 42.4966 38.0408 42.3843 38.1033C42.272 38.1657 42.1758 38.2535 42.1034 38.3597L33.3433 50.5463C33.3284 50.567 33.3144 50.5955 33.3016 50.6176C31.5455 53.6302 31.5676 57.2954 33.3607 60.4159C34.3025 62.0783 35.6687 63.4608 37.3197 64.4224C38.9706 65.384 40.8472 65.8901 42.7578 65.8892C44.6684 65.8882 46.5445 65.3802 48.1945 64.4169C49.8446 63.4537 51.2093 62.0698 52.1495 60.4065C53.9336 57.2933 53.9517 53.6485 52.198 50.656C52.1855 50.6347 52.1721 50.6145 52.1578 50.5946ZM50.7668 59.6151C49.9662 61.035 48.8027 62.2167 47.3955 63.0394C45.9883 63.862 44.3877 64.2961 42.7577 64.2972C41.1276 64.2982 39.5265 63.8663 38.1182 63.0454C36.7099 62.2246 35.5449 61.0444 34.7424 59.6256C33.2212 56.9778 33.1915 54.0038 34.6597 51.4596L42.7493 40.219L50.8411 51.4937C52.3058 54.0172 52.2794 56.9754 50.7668 59.6151Z" fill="black"/>
<path d="M47.9994 54.4531C47.7881 54.4531 47.5854 54.5371 47.4359 54.6865C47.2865 54.836 47.2025 55.0387 47.2025 55.25C47.1976 56.4445 46.7191 57.5882 45.8719 58.4303C45.0247 59.2724 43.8781 59.744 42.6836 59.7417C42.4722 59.7417 42.2696 59.8257 42.1201 59.9751C41.9707 60.1246 41.8867 60.3273 41.8867 60.5386C41.8867 60.7499 41.9707 60.9526 42.1201 61.1021C42.2696 61.2515 42.4722 61.3355 42.6836 61.3355C44.3006 61.3374 45.8523 60.6979 46.9984 59.5571C48.1445 58.4164 48.7912 56.8677 48.7968 55.2507C48.7969 55.1459 48.7763 55.0422 48.7363 54.9454C48.6963 54.8486 48.6375 54.7606 48.5635 54.6866C48.4894 54.6125 48.4015 54.5538 48.3047 54.5137C48.2079 54.4736 48.1042 54.4531 47.9994 54.4531Z" fill="black"/>
</svg>
