<svg width="68" height="68" viewBox="0 0 68 68" fill="none" xmlns="http://www.w3.org/2000/svg">
<path d="M57.9062 19.946H32.8124C32.6777 19.2221 32.3597 18.5449 31.8886 17.979C31.4176 17.4132 30.8093 16.9775 30.1219 16.7138L38.3002 7.57553C38.372 7.49789 38.4277 7.40673 38.464 7.30736C38.5002 7.20799 38.5163 7.1024 38.5113 6.99675C38.5063 6.89109 38.4804 6.78748 38.4349 6.69197C38.3895 6.59645 38.3255 6.51094 38.2466 6.44041C38.1678 6.36989 38.0757 6.31576 37.9758 6.28119C37.8758 6.24662 37.77 6.2323 37.6644 6.23906C37.5588 6.24581 37.4557 6.27352 37.361 6.32056C37.2662 6.3676 37.1818 6.43302 37.1126 6.51303L28.5252 16.1083L19.1486 7.86546C19.0702 7.79534 18.9787 7.74145 18.8793 7.70689C18.7799 7.67233 18.6747 7.65779 18.5697 7.6641C18.4647 7.67042 18.362 7.69747 18.2675 7.74368C18.1729 7.7899 18.0885 7.85438 18.0191 7.93339C17.9496 8.0124 17.8965 8.10438 17.8627 8.20403C17.829 8.30368 17.8153 8.40902 17.8225 8.51398C17.8297 8.61894 17.8576 8.72143 17.9046 8.81556C17.9516 8.90968 18.0168 8.99356 18.0964 9.06236L26.8835 16.7875C26.2386 17.0688 25.6725 17.5038 25.2347 18.0546C24.7968 18.6053 24.5006 19.2549 24.372 19.9466H10.0938C9.17825 19.9477 8.30054 20.3118 7.65319 20.9592C7.00583 21.6065 6.64168 22.4842 6.64062 23.3997V54.0359C6.64168 54.9514 7.00583 55.8291 7.65319 56.4764C8.30054 57.1238 9.17825 57.4879 10.0938 57.489H11.3633V60.9561C11.3633 61.1674 11.4473 61.3701 11.5967 61.5195C11.7461 61.669 11.9488 61.7529 12.1602 61.7529H17.7516C17.9629 61.7529 18.1656 61.669 18.3151 61.5195C18.4645 61.3701 18.5485 61.1674 18.5485 60.9561V57.489H49.4509V60.9561C49.4509 61.1674 49.5348 61.3701 49.6843 61.5195C49.8337 61.669 50.0364 61.7529 50.2477 61.7529H55.8392C56.0505 61.7529 56.2532 61.669 56.4026 61.5195C56.5521 61.3701 56.636 61.1674 56.636 60.9561V57.489H57.9062C58.8218 57.4879 59.6995 57.1238 60.3468 56.4764C60.9942 55.8291 61.3583 54.9514 61.3594 54.0359V23.3991C61.3583 22.4836 60.9942 21.6059 60.3468 20.9585C59.6995 20.3112 58.8218 19.947 57.9062 19.946ZM28.5923 18.0248C29.1719 18.0256 29.736 18.2128 30.2011 18.5587C30.6662 18.9047 31.0077 19.391 31.1752 19.946H26.0088C26.1764 19.391 26.518 18.9046 26.9832 18.5586C27.4484 18.2127 28.0125 18.0255 28.5923 18.0248ZM16.9554 60.1592H12.9571V57.489H16.9554V60.1592ZM55.0429 60.1592H51.0453V57.489H55.0429V60.1592ZM59.7656 54.0359C59.7651 54.5288 59.569 55.0015 59.2204 55.3501C58.8719 55.6986 58.3992 55.8947 57.9062 55.8952H10.0938C9.60078 55.8947 9.12814 55.6986 8.77956 55.3501C8.43097 55.0015 8.2349 54.5288 8.23438 54.0359V23.3991C8.2349 22.9061 8.43097 22.4335 8.77956 22.0849C9.12814 21.7363 9.60078 21.5402 10.0938 21.5397H57.9062C58.3992 21.5402 58.8719 21.7363 59.2204 22.0849C59.569 22.4335 59.7651 22.9061 59.7656 23.3991V54.0359Z" fill="black"/>
<path d="M42.4326 25.5565H14.3838C13.8204 25.5572 13.2803 25.7813 12.8819 26.1797C12.4836 26.578 12.2595 27.1181 12.2588 27.6815V49.7538C12.2595 50.3172 12.4836 50.8573 12.8819 51.2556C13.2803 51.654 13.8204 51.8781 14.3838 51.8788H42.4326C42.996 51.8781 43.5361 51.6541 43.9345 51.2557C44.3329 50.8573 44.557 50.3172 44.5576 49.7538V27.6815C44.557 27.1181 44.3329 26.578 43.9345 26.1796C43.5361 25.7812 42.996 25.5572 42.4326 25.5565ZM42.9639 49.7538C42.9639 49.8947 42.9079 50.0298 42.8083 50.1294C42.7086 50.229 42.5735 50.285 42.4326 50.285H14.3838C14.2429 50.2848 14.1079 50.2288 14.0083 50.1292C13.9087 50.0296 13.8527 49.8946 13.8525 49.7538V27.6815C13.8527 27.5407 13.9087 27.4057 14.0083 27.3061C14.1079 27.2065 14.2429 27.1504 14.3838 27.1503H42.4326C42.5735 27.1503 42.7086 27.2062 42.8083 27.3059C42.9079 27.4055 42.9639 27.5406 42.9639 27.6815V49.7538Z" fill="black"/>
<path d="M51.7894 25.5565C51.217 25.5565 50.6575 25.7262 50.1815 26.0442C49.7056 26.3622 49.3347 26.8141 49.1156 27.3429C48.8965 27.8717 48.8392 28.4536 48.9509 29.015C49.0625 29.5764 49.3381 30.0921 49.7428 30.4968C50.1476 30.9016 50.6632 31.1772 51.2246 31.2889C51.786 31.4005 52.3679 31.3432 52.8967 31.1242C53.4255 30.9052 53.8775 30.5342 54.1955 30.0583C54.5135 29.5824 54.6832 29.0229 54.6832 28.4505C54.6823 27.6833 54.3772 26.9477 53.8347 26.4052C53.2922 25.8626 52.5566 25.5574 51.7894 25.5565ZM51.7894 29.7506C51.5322 29.7506 51.2808 29.6744 51.067 29.5315C50.8531 29.3887 50.6864 29.1856 50.588 28.948C50.4896 28.7104 50.4638 28.449 50.514 28.1967C50.5642 27.9445 50.688 27.7128 50.8698 27.531C51.0517 27.3491 51.2834 27.2253 51.5356 27.1751C51.7878 27.1249 52.0493 27.1507 52.2869 27.2491C52.5245 27.3476 52.7275 27.5142 52.8704 27.7281C53.0133 27.9419 53.0895 28.1933 53.0895 28.4505C53.089 28.7951 52.9518 29.1255 52.7081 29.3691C52.4644 29.6128 52.134 29.7498 51.7894 29.7502V29.7506Z" fill="black"/>
<path d="M51.7894 33.6848C51.217 33.6847 50.6575 33.8544 50.1815 34.1724C49.7056 34.4904 49.3347 34.9424 49.1156 35.4712C48.8965 36 48.8392 36.5819 48.9509 37.1433C49.0625 37.7046 49.3381 38.2203 49.7428 38.6251C50.1476 39.0298 50.6632 39.3054 51.2246 39.4171C51.786 39.5288 52.3679 39.4715 52.8967 39.2525C53.4255 39.0334 53.8775 38.6625 54.1955 38.1866C54.5135 37.7107 54.6832 37.1511 54.6832 36.5787C54.6823 35.8115 54.3772 35.0759 53.8347 34.5334C53.2922 33.9909 52.5566 33.6857 51.7894 33.6848ZM51.7894 37.8788C51.5322 37.8789 51.2808 37.8026 51.067 37.6598C50.8531 37.5169 50.6864 37.3138 50.588 37.0762C50.4896 36.8387 50.4638 36.5772 50.514 36.325C50.5642 36.0727 50.688 35.8411 50.8698 35.6592C51.0517 35.4774 51.2834 35.3535 51.5356 35.3033C51.7878 35.2532 52.0493 35.2789 52.2869 35.3774C52.5245 35.4758 52.7275 35.6425 52.8704 35.8563C53.0133 36.0702 53.0895 36.3216 53.0895 36.5787C53.0891 36.9234 52.952 37.2539 52.7083 37.4976C52.4645 37.7414 52.1341 37.8785 51.7894 37.8788Z" fill="black"/>
<path d="M50.3286 48.1604C50.1173 48.1604 49.9146 48.2444 49.7651 48.3938C49.6157 48.5432 49.5317 48.7459 49.5317 48.9573V51.0823C49.5317 51.2936 49.6157 51.4963 49.7651 51.6458C49.9146 51.7952 50.1173 51.8792 50.3286 51.8792C50.54 51.8792 50.7426 51.7952 50.8921 51.6458C51.0415 51.4963 51.1255 51.2936 51.1255 51.0823V48.9573C51.1255 48.7459 51.0415 48.5432 50.8921 48.3938C50.7426 48.2444 50.54 48.1604 50.3286 48.1604Z" fill="black"/>
<path d="M53.2505 48.1604C53.0391 48.1604 52.8365 48.2444 52.687 48.3938C52.5376 48.5432 52.4536 48.7459 52.4536 48.9573V51.0823C52.4536 51.2936 52.5376 51.4963 52.687 51.6458C52.8365 51.7952 53.0391 51.8792 53.2505 51.8792C53.4618 51.8792 53.6645 51.7952 53.814 51.6458C53.9634 51.4963 54.0474 51.2936 54.0474 51.0823V48.9573C54.0474 48.7459 53.9634 48.5432 53.814 48.3938C53.6645 48.2444 53.4618 48.1604 53.2505 48.1604Z" fill="black"/>
<path d="M47.4067 48.1604C47.1954 48.1604 46.9927 48.2444 46.8433 48.3938C46.6938 48.5432 46.6099 48.7459 46.6099 48.9573V51.0823C46.6099 51.2936 46.6938 51.4963 46.8433 51.6458C46.9927 51.7952 47.1954 51.8792 47.4067 51.8792C47.6181 51.8792 47.8208 51.7952 47.9702 51.6458C48.1197 51.4963 48.2036 51.2936 48.2036 51.0823V48.9573C48.2036 48.7459 48.1197 48.5432 47.9702 48.3938C47.8208 48.2444 47.6181 48.1604 47.4067 48.1604Z" fill="black"/>
<path d="M56.1724 48.1604C55.961 48.1604 55.7583 48.2444 55.6089 48.3938C55.4594 48.5432 55.3755 48.7459 55.3755 48.9573V51.0823C55.3755 51.2936 55.4594 51.4963 55.6089 51.6458C55.7583 51.7952 55.961 51.8792 56.1724 51.8792C56.3837 51.8792 56.5864 51.7952 56.7358 51.6458C56.8853 51.4963 56.9692 51.2936 56.9692 51.0823V48.9573C56.9692 48.7459 56.8853 48.5432 56.7358 48.3938C56.5864 48.2444 56.3837 48.1604 56.1724 48.1604Z" fill="black"/>
</svg>
